<svg class="animated" id="freepik_stories-mosque-online-service" xmlns="http://www.w3.org/2000/svg" viewBox="0 0 500 500" version="1.1" xmlns:xlink="http://www.w3.org/1999/xlink" xmlns:svgjs="http://svgjs.com/svgjs"><style>svg#freepik_stories-mosque-online-service:not(.animated) .animable {opacity: 0;}svg#freepik_stories-mosque-online-service.animated #freepik--Floor--inject-128 {animation: 1s 1 forwards cubic-bezier(.36,-0.01,.5,1.38) lightSpeedLeft;animation-delay: 0s;}svg#freepik_stories-mosque-online-service.animated #freepik--Shadows--inject-128 {animation: 1s 1 forwards cubic-bezier(.36,-0.01,.5,1.38) slideRight;animation-delay: 0s;}svg#freepik_stories-mosque-online-service.animated #freepik--Quran--inject-128 {animation: 1s 1 forwards cubic-bezier(.36,-0.01,.5,1.38) slideLeft,1.5s Infinite  linear floating;animation-delay: 0s,1s;}svg#freepik_stories-mosque-online-service.animated #freepik--speech-bubble-2--inject-128 {animation: 1s 1 forwards cubic-bezier(.36,-0.01,.5,1.38) slideRight,6s Infinite  linear spin;animation-delay: 0s,2s;}svg#freepik_stories-mosque-online-service.animated #freepik--speech-bubble-1--inject-128 {animation: 1s 1 forwards cubic-bezier(.36,-0.01,.5,1.38) zoomOut,1.5s Infinite  linear floating;animation-delay: 0s,1s;}svg#freepik_stories-mosque-online-service.animated #freepik--character-3--inject-128 {animation: 1s 1 forwards cubic-bezier(.36,-0.01,.5,1.38) zoomIn,6s Infinite  linear floating;animation-delay: 0s,1s;}svg#freepik_stories-mosque-online-service.animated #freepik--Plants--inject-128 {animation: 1s 1 forwards cubic-bezier(.36,-0.01,.5,1.38) slideRight,1.5s Infinite  linear floating;animation-delay: 0s,1s;}svg#freepik_stories-mosque-online-service.animated #freepik--character-2--inject-128 {animation: 1s 1 forwards cubic-bezier(.36,-0.01,.5,1.38) zoomIn,6s Infinite  linear heartbeat;animation-delay: 0s,7s;}svg#freepik_stories-mosque-online-service.animated #freepik--character-1--inject-128 {animation: 1s 1 forwards cubic-bezier(.36,-0.01,.5,1.38) zoomIn,6s Infinite  linear heartbeat;animation-delay: 0s,6s;}            @keyframes lightSpeedLeft {              from {                transform: translate3d(-50%, 0, 0) skewX(20deg);                opacity: 0;              }              60% {                transform: skewX(-10deg);                opacity: 1;              }              80% {                transform: skewX(2deg);              }              to {                opacity: 1;                transform: translate3d(0, 0, 0);              }            }                    @keyframes slideRight {                0% {                    opacity: 0;                    transform: translateX(30px);                }                100% {                    opacity: 1;                    transform: translateX(0);                }            }                    @keyframes slideLeft {                0% {                    opacity: 0;                    transform: translateX(-30px);                }                100% {                    opacity: 1;                    transform: translateX(0);                }            }                    @keyframes floating {                0% {                    opacity: 1;                    transform: translateY(0px);                }                50% {                    transform: translateY(-10px);                }                100% {                    opacity: 1;                    transform: translateY(0px);                }            }                 @keyframes spin {             from {                 transform: rotate(0);               }               to {                 transform: rotate(360deg);               }         }                 @keyframes zoomOut {                0% {                    opacity: 0;                    transform: scale(1.5);                }                100% {                    opacity: 1;                    transform: scale(1);                }            }                    @keyframes zoomIn {                0% {                    opacity: 0;                    transform: scale(0.5);                }                100% {                    opacity: 1;                    transform: scale(1);                }            }                    @keyframes heartbeat {                0% {                    transform: scale(1);                }                10% {                    transform: scale(1.1);                }                30% {                    transform: scale(1);                }                40% {                    transform: scale(1);                }                50% {                    transform: scale(1.1);                }                60% {                    transform: scale(1);                }                100% {                    transform: scale(1);                }            }        </style><g id="freepik--Floor--inject-128" class="animable" style="transform-origin: 250.027px 346.641px;"><path id="freepik--floor--inject-128" d="M79,247.91c-94.45,54.53-94.45,143,0,197.48s247.59,54.53,342.05,0,94.45-142.95,0-197.48S173.44,193.38,79,247.91Z" style="fill: rgb(245, 245, 245); transform-origin: 250.027px 346.641px;" class="animable"></path></g><g id="freepik--Shadows--inject-128" class="animable" style="transform-origin: 268.241px 334.425px;"><path id="freepik--Shadow--inject-128" d="M55.66,367.13l119.87,69.21a11.69,11.69,0,0,0,10.59,0L379.49,324.7c2.93-1.69,2.93-4.43,0-6.12L259.62,249.37a11.76,11.76,0,0,0-10.59,0L55.66,361C52.73,362.71,52.73,365.45,55.66,367.13Z" style="fill: rgb(224, 224, 224); transform-origin: 217.575px 342.859px;" class="animable"></path><polygon id="freepik--shadow--inject-128" points="407.28 278.51 373.17 298.21 273.8 240.83 307.91 221.13 407.28 278.51" style="fill: rgb(224, 224, 224); transform-origin: 340.54px 259.67px;" class="animable"></polygon><ellipse id="freepik--shadow--inject-128" cx="431.35" cy="361.14" rx="51.67" ry="29.83" style="fill: rgb(224, 224, 224); transform-origin: 431.35px 361.14px;" class="animable"></ellipse><ellipse id="freepik--shadow--inject-128" cx="353.65" cy="414.74" rx="57.12" ry="32.98" style="fill: rgb(224, 224, 224); transform-origin: 353.65px 414.74px;" class="animable"></ellipse></g><g id="freepik--Quran--inject-128" class="animable" style="transform-origin: 340.94px 185.966px;"><g id="freepik--Book--inject-128" class="animable" style="transform-origin: 340.94px 185.966px;"><path d="M388.69,125.18v3.27s-1.27-1.15-1.34-2S388.69,125.18,388.69,125.18Z" id="el9hgctoruq1m" class="animable" style="transform-origin: 388.019px 126.815px;"></path><path d="M386.17,124.38a3.44,3.44,0,0,0,2.53,4.38c3.57,1.13,5.81,0,6.35,1s-16.95,11.09-16.95,11.09l3.32-14.47Z" style="fill: rgb(0, 255, 136); transform-origin: 386.581px 132.615px;" id="el41aoumxs498" class="animable"></path><g id="elknhfj5rfaib"><path d="M386.17,124.38a3.44,3.44,0,0,0,2.53,4.38c3.57,1.13,5.81,0,6.35,1s-16.95,11.09-16.95,11.09l3.32-14.47Z" style="opacity: 0.3; transform-origin: 386.581px 132.615px;" class="animable"></path></g><path d="M384.66,278,309.31,234.7l.1-149.12c0-2.09,1.14-3.12,2.55-2.3l2.55,1.48,70.15,40.48-.07.61Z" style="fill: rgb(0, 255, 136); transform-origin: 346.985px 180.499px;" id="el6ypq0yb5os" class="animable"></path><g id="elfjc25mbyfks"><path d="M384.66,278,309.31,234.7l.1-149.12c0-2.09,1.14-3.12,2.55-2.3l2.55,1.48,70.15,40.48-.07.61Z" style="opacity: 0.2; transform-origin: 346.985px 180.499px;" class="animable"></path></g><path d="M369.38,144.87l-3.68-4.15,18.83-10.87c2.84,2.14,5,3.29,7.57,2.22Z" style="fill: rgb(69, 90, 100); transform-origin: 378.9px 137.36px;" id="el4s8wvlea2aa" class="animable"></path><path d="M383.58,127.63,314.11,87.52a4.81,4.81,0,0,0-4.37,0L291.17,98.24l70.45,40.32s3.05-.8,5.12.88,2-.45,2-.45l15.83-9.14C383.24,128.12,383.58,127.63,383.58,127.63Z" style="fill: rgb(245, 245, 245); transform-origin: 337.87px 113.54px;" id="eluuu69f7344" class="animable"></path><path d="M368,144c-.71-.41-1-.89-.68-1.09l.59-.33c.65-.38.05-1.36-1.37-2.18s-3.1-1.18-3.76-.81l-.59.35c-.33.19-1.57-.21-2.77-.9l.43,145.54,1.75,1a1.59,1.59,0,0,0,1-.1l.59-.34c.65-.38,2.33,0,3.74.79s2,1.8,1.38,2.18l-.59.34c-.34.2,0,.67.68,1.09Z" style="fill: rgb(0, 255, 136); transform-origin: 363.988px 214.29px;" id="ela9bksbg4hic" class="animable"></path><g id="elhedgkik1e0e"><path d="M368,144c-.71-.41-1-.89-.68-1.09l.59-.33c.65-.38.05-1.36-1.37-2.18s-3.1-1.18-3.76-.81l-.59.35c-.33.19-1.57-.21-2.77-.9l.43,145.54,1.75,1a1.59,1.59,0,0,0,1-.1l.59-.34c.65-.38,2.33,0,3.74.79s2,1.8,1.38,2.18l-.59.34c-.34.2,0,.67.68,1.09Z" style="opacity: 0.4; transform-origin: 363.988px 214.29px;" class="animable"></path></g><path d="M361.62,285.38v.21l-1.74-1-75-43.31V99.75c0-2.09,1.15-3.12,2.56-2.3L290,98.93l71.65,39.63Z" style="fill: rgb(0, 255, 136); transform-origin: 323.265px 191.379px;" id="el803vjlcjs15" class="animable"></path><g id="elt78diyo7z1h"><path d="M361.62,285.38v.21l-1.74-1-75-43.31V99.75c0-2.09,1.15-3.12,2.56-2.3L290,98.93l71.65,41Z" style="opacity: 0.2; transform-origin: 323.265px 191.379px;" class="animable"></path></g><path d="M329.46,213.55c-8.9-5.14-16.12-20.42-16.12-34.13,0-11.11,4.75-17.78,11.29-17.16-.53-.38-1.07-.73-1.61-1-10.27-5.93-18.6,2.09-18.6,17.91s8.33,33.44,18.6,39.37c6.54,3.78,12.29,1.91,15.6-4C336,215.72,332.86,215.52,329.46,213.55Zm-3.74-24.2,1,7.88,3.17-3.82,4.82,3.6-2.51-7.84,2-5.66-4.72-1-3.59-7.1-.41,7.21-4.21,1.27ZM290,106.05V235.58l66,38.08V144.13Zm63.22,162.52-60.47-34.91V111.15l60.47,34.91ZM350.75,147.7l-55.46-32V232l55.46,32Zm-2.46,90.56c0,7.39-1.28,9.56-6.69,6.74,0,8.62-9.46,4.43-18.58-.84s-18.58-12-18.58-20.62c-5.4-3.42-6.68-7.07-6.68-14.46V141.46c0-7.39,1.28-9.56,6.68-6.75,0-8.62,9.47-4.41,18.58.85s18.58,12,18.58,20.61c5.41,3.43,6.69,7.07,6.69,14.47Z" style="fill: rgb(0, 255, 136); transform-origin: 323px 189.855px;" id="elsyn83yfl9fc" class="animable"></path><g id="el582b4nv18xm"><path d="M329.46,213.55c-8.9-5.14-16.12-20.42-16.12-34.13,0-11.11,4.75-17.78,11.29-17.16-.53-.38-1.07-.73-1.61-1-10.27-5.93-18.6,2.09-18.6,17.91s8.33,33.44,18.6,39.37c6.54,3.78,12.29,1.91,15.6-4C336,215.72,332.86,215.52,329.46,213.55Zm-3.74-24.2,1,7.88,3.17-3.82,4.82,3.6-2.51-7.84,2-5.66-4.72-1-3.59-7.1-.41,7.21-4.21,1.27ZM290,106.05V235.58l66,38.08V144.13Zm63.22,162.52-60.47-34.91V111.15l60.47,34.91ZM350.75,147.7l-55.46-32V232l55.46,32Zm-2.46,90.56c0,7.39-1.28,9.56-6.69,6.74,0,8.62-9.46,4.43-18.58-.84s-18.58-12-18.58-20.62c-5.4-3.42-6.68-7.07-6.68-14.46V141.46c0-7.39,1.28-9.56,6.68-6.75,0-8.62,9.47-4.41,18.58.85s18.58,12,18.58,20.61c5.41,3.43,6.69,7.07,6.69,14.47Z" style="fill: rgb(255, 255, 255); opacity: 0.3; transform-origin: 323px 189.855px;" class="animable"></path></g><path d="M367.2,288.81V143.12l4.66,1.88V290.27a4.39,4.39,0,0,1-2.57-.26Z" style="fill: rgb(0, 255, 136); transform-origin: 369.53px 216.738px;" id="elxymlki276dd" class="animable"></path><g id="el1zu2kojxfxsj"><path d="M367.2,288.81V143.12l4.66,1.88V290.27a4.39,4.39,0,0,1-2.57-.26Z" style="opacity: 0.2; transform-origin: 369.53px 216.738px;" class="animable"></path></g><path d="M396.93,275.28a1.07,1.07,0,0,1,0,.25.34.34,0,0,1,0,.17,1.32,1.32,0,0,1-.15.35c0,.06-.05.11-.08.18a4.12,4.12,0,0,1-.4.56c-.16.19-.34.38-.52.56l-.69.6-.38.28-.35.25c-.26.18-.54.35-.83.52l-16.16,9.33a15.54,15.54,0,0,1-5.45,1.94V145l25.08-15V275.28Z" style="fill: rgb(0, 255, 136); transform-origin: 384.46px 210.135px;" id="elcjyyzmy8nh9" class="animable"></path><path d="M396.93,275.28a1.07,1.07,0,0,1,0,.25.34.34,0,0,1,0,.17,1.32,1.32,0,0,1-.15.35c0,.06-.05.11-.08.18a4.12,4.12,0,0,1-.4.56c-.16.19-.34.38-.52.56l-.69.6-.38.28-.35.25c-.26.18-.54.35-.83.52l-16.16,9.33a15.54,15.54,0,0,1-5.45,1.94V145l25.08-15V275.28Z" style="fill: rgb(0, 255, 136); transform-origin: 384.46px 210.135px;" id="elz0x8v3o1iph" class="animable"></path><g id="elisaf6ind7k"><path d="M393,139.3l-17.29,10c0,4,1.34,5.11,1.34,5.11a18,18,0,0,0-1.34,7.15V269.9c0,4.36,1.34,5.61,1.34,5.61a15,15,0,0,0-1.34,6.65l17.29-10c0-4-1.33-5.1-1.33-5.1a18.13,18.13,0,0,0,1.33-7.15V151.56c0-4.36-1.33-5.61-1.33-5.61A15.14,15.14,0,0,0,393,139.3Zm-2.82,109.89a27.49,27.49,0,0,1-5.82,16.62,5.12,5.12,0,0,1-4.23-2.81,14.05,14.05,0,0,1-1.6-7.08V242.61a5.23,5.23,0,0,0,4.48.91c-.16.93-.68,3.19-2.08,3.68a1.69,1.69,0,0,0,2.48.39s-.43,2.57.95,3.81a9.28,9.28,0,0,0,1-4.06,4.21,4.21,0,0,0-.07-.84s1.3-.42,2.48-3.26c-1.39,1.12-1.91-.54-2.07-1.28a22.12,22.12,0,0,0,4.47-6.08Zm-11.65-76.93a27.49,27.49,0,0,1,5.83-16.61,5.1,5.1,0,0,1,4.23,2.81,14.06,14.06,0,0,1,1.59,7.08v13.31a5.17,5.17,0,0,0-4.47-.91c.16-.93.68-3.19,2.07-3.68a1.68,1.68,0,0,0-2.47-.39s.43-2.57-1-3.81a9.27,9.27,0,0,0-1,4.05,5,5,0,0,0,.06.85s-1.29.42-2.48,3.26c1.4-1.13,1.92.53,2.08,1.28a22.26,22.26,0,0,0-4.48,6.07Z" style="fill: rgb(255, 255, 255); opacity: 0.3; transform-origin: 384.355px 210.73px;" class="animable"></path></g><path d="M390.22,226.66q-5.82,11.93-11.65,6.72V194.79q5.83-9.53,11.65-6.72Z" style="fill: rgb(69, 90, 100); transform-origin: 384.395px 211.197px;" id="elsmqxtf0kyy" class="animable"></path><path d="M377.31,143.06l-1.26-2.19a11.44,11.44,0,0,1-5.38,1.7,3.32,3.32,0,0,0-.44-2.13,6.58,6.58,0,0,0-2.42-2.23,9.85,9.85,0,0,0-3.67-1.24l-.27,0a4.23,4.23,0,0,0-2.25.43L295.08,99l-2.26-1.3L289.94,96a1.53,1.53,0,0,0-1.57-.12l-2.55,1.48a1.57,1.57,0,0,1,1.6.09l0,0,7.63,4.41L359.44,139c1.2.69,2.44,1.11,2.78.91l.59-.34a2.07,2.07,0,0,1,1.33-.08,7.2,7.2,0,0,1,2.41.87c1.42.83,2,1.8,1.37,2.18l-.58.34c-.34.2,0,.67.68,1.09l1.28.73C370.71,145.55,374.3,144.8,377.31,143.06Z" style="fill: rgb(0, 255, 136); transform-origin: 331.565px 120.385px;" id="el7rukcw17xy" class="animable"></path><g id="eliapgr0dkiw8"><path d="M377.31,143.06l-1.26-2.19a11.44,11.44,0,0,1-5.38,1.7,3.32,3.32,0,0,0-.44-2.13,6.58,6.58,0,0,0-2.42-2.23,9.85,9.85,0,0,0-3.67-1.24l-.27,0a4.23,4.23,0,0,0-2.25.43L295.08,99l-2.26-1.3L289.94,96a1.53,1.53,0,0,0-1.57-.12l-2.55,1.48a1.57,1.57,0,0,1,1.6.09l0,0,7.63,4.41L359.44,139c1.2.69,2.44,1.11,2.78.91l.59-.34a2.07,2.07,0,0,1,1.33-.08,7.2,7.2,0,0,1,2.41.87c1.42.83,2,1.8,1.37,2.18l-.58.34c-.34.2,0,.67.68,1.09l1.28.73C370.71,145.55,374.3,144.8,377.31,143.06Z" style="fill: rgb(255, 255, 255); opacity: 0.3; transform-origin: 331.565px 120.385px;" class="animable"></path></g><path d="M376.05,140.87l16.16-9.33c.23-.13.45-.27.67-.41l.51-.37.05,0c-1.85.81-4.36,0-6-.93a6.26,6.26,0,0,1-2.36-2.18,3.37,3.37,0,0,1-.41-2.37l-.22-.13-.45-.25L319.64,87.71,316,85.58,314.88,85l-3.11-1.79a1.48,1.48,0,0,0-1.4,0l.7-.4,1.85-1.07a1.4,1.4,0,0,1,1.31,0s0,0,0,0c.37.2.75.44,1.15.65l.72.42,1.24.71.77.44.54.32.95.54,51.11,29.52,16.32,9.42c1.17.66,1.85,1.36,1.57,1.59l-.1.07-.57.33c-.71.41-.13,1.4,1.28,2.22a3.45,3.45,0,0,0,3.24.46l.69-.41a1.17,1.17,0,0,1,1-.15l.38.22c.22.14.5.29.8.47s.65.36,1,.57a1,1,0,0,1,.54,1.16.45.45,0,0,1,0,.16,2.17,2.17,0,0,1-.15.35h0a.53.53,0,0,1-.08.17,3,3,0,0,1-.4.57,5.39,5.39,0,0,1-.52.56l-.66.57a4.4,4.4,0,0,1-.41.31l-.35.24c-.26.18-.53.36-.83.53l-16.16,9.33Z" style="fill: rgb(0, 255, 136); transform-origin: 353.632px 112.329px;" id="elho4s7kttj15" class="animable"></path><g id="el3310vjynzk"><path d="M376.05,140.87l16.16-9.33c.23-.13.45-.27.67-.41l.51-.37.05,0c-1.85.81-4.36,0-6-.93a6.26,6.26,0,0,1-2.36-2.18,3.37,3.37,0,0,1-.41-2.37l-.22-.13-.45-.25L319.64,87.71,316,85.58,314.88,85l-3.11-1.79a1.48,1.48,0,0,0-1.4,0l.7-.4,1.85-1.07a1.4,1.4,0,0,1,1.31,0s0,0,0,0c.37.2.75.44,1.15.65l.72.42,1.24.71.77.44.54.32.95.54,51.11,29.52,16.32,9.42c1.17.66,1.85,1.36,1.57,1.59l-.1.07-.57.33c-.71.41-.13,1.4,1.28,2.22a3.45,3.45,0,0,0,3.24.46l.69-.41a1.17,1.17,0,0,1,1-.15l.38.22c.22.14.5.29.8.47s.65.36,1,.57a1,1,0,0,1,.54,1.16.45.45,0,0,1,0,.16,2.17,2.17,0,0,1-.15.35h0a.53.53,0,0,1-.08.17,3,3,0,0,1-.4.57,5.39,5.39,0,0,1-.52.56l-.66.57a4.4,4.4,0,0,1-.41.31l-.35.24c-.26.18-.53.36-.83.53l-16.16,9.33Z" style="fill: rgb(255, 255, 255); opacity: 0.3; transform-origin: 353.632px 112.329px;" class="animable"></path></g></g></g><g id="freepik--speech-bubble-2--inject-128" class="animable animator-active" style="transform-origin: 432.295px 93.1204px;"><g id="freepik--speech-bubble--inject-128" class="animable" style="transform-origin: 432.295px 93.1204px;"><g id="freepik--speech-bubble--inject-128" class="animable" style="transform-origin: 432.295px 93.1204px;"><path d="M457.26,88.85a24.94,24.94,0,0,1-6.72,17.05l-2.07,2a24.93,24.93,0,0,1-35.2-35.09l2-2.07a24.94,24.94,0,0,1,42,18.14Z" style="fill: rgb(255, 255, 255); transform-origin: 432.304px 88.9377px;" id="elf7j4cfgjjru" class="animable"></path><path d="M432.26,61.82a27.07,27.07,0,0,0-4.43,53.76l3.05,7.84a1.58,1.58,0,0,0,2.94,0l3-7.85a27.07,27.07,0,0,0-4.59-53.75Zm25,27a24.94,24.94,0,0,1-6.72,17.05l-2.07,2a24.93,24.93,0,0,1-35.2-35.09l2-2.07a24.94,24.94,0,0,1,42,18.14Z" style="fill: rgb(69, 90, 100); transform-origin: 432.295px 93.1204px;" id="elry0t1eivydg" class="animable"></path><path d="M457.26,88.85a24.94,24.94,0,0,1-6.72,17.05l-2.07,2a24.93,24.93,0,0,1-35.2-35.09l2-2.07a24.94,24.94,0,0,1,42,18.14Z" style="fill: rgb(255, 255, 255); transform-origin: 432.304px 88.9377px;" id="el3eah7oozz4f" class="animable"></path></g><g id="freepik--Moon--inject-128" class="animable" style="transform-origin: 432.216px 88.8749px;"><path d="M447.78,87.44a10.81,10.81,0,1,1-9-12.75,15.63,15.63,0,1,0,9,12.75Zm-9.37-7.69-.85,2.78-2.77.87a.53.53,0,0,0-.14.94L437,86l0,2.9a.53.53,0,0,0,.85.43l2.32-1.75,2.75.92a.53.53,0,0,0,.67-.67l-.94-2.75,1.72-2.33a.53.53,0,0,0-.43-.85L441,82l-1.69-2.36A.53.53,0,0,0,438.41,79.75Z" style="fill: rgb(0, 255, 136); transform-origin: 432.216px 88.8749px;" id="ele0p8vtmxx35" class="animable"></path><g id="el2cvjy7k3ol7"><path d="M447.78,87.44a10.81,10.81,0,1,1-9-12.75,15.63,15.63,0,1,0,9,12.75Zm-9.37-7.69-.85,2.78-2.77.87a.53.53,0,0,0-.14.94L437,86l0,2.9a.53.53,0,0,0,.85.43l2.32-1.75,2.75.92a.53.53,0,0,0,.67-.67l-.94-2.75,1.72-2.33a.53.53,0,0,0-.43-.85L441,82l-1.69-2.36A.53.53,0,0,0,438.41,79.75Z" style="fill: rgb(0, 255, 136); opacity: 0.5; transform-origin: 432.216px 88.8749px;" class="animable"></path></g></g></g></g><g id="freepik--speech-bubble-1--inject-128" class="animable" style="transform-origin: 64.0551px 129.807px;"><g id="freepik--speech-bubble--inject-128" class="animable" style="transform-origin: 64.0551px 129.807px;"><g id="freepik--speech-bubble--inject-128" class="animable" style="transform-origin: 64.0551px 129.807px;"><path d="M75.86,124.74l0-18.63,15.67-1.65a1.48,1.48,0,0,1,.9.19l8.22,4.76a1.48,1.48,0,0,1,.33,2.3l-16.92,17.8Z" style="fill: rgb(0, 255, 136); transform-origin: 88.6237px 116.981px;" id="elz0cwt72kxx" class="animable"></path><path d="M26.7,162.16v-42A2.9,2.9,0,0,1,28,117.93L75,90.84a2.88,2.88,0,0,1,2.62,0L85,95.17a2.94,2.94,0,0,1,1.3,2.29v42A2.91,2.91,0,0,1,85,141.69l-47,27.08a2.85,2.85,0,0,1-2.62,0L28,164.44A2.94,2.94,0,0,1,26.7,162.16Z" style="fill: rgb(0, 255, 136); transform-origin: 56.5px 129.807px;" id="el2i6uffm6i62" class="animable"></path><g id="eliypj811pvf"><path d="M37.72,168.88c-.62.24-1.09-.11-1.1-.87V126.06a2.63,2.63,0,0,1,.38-1.29L27.06,119a2.74,2.74,0,0,0-.36,1.25v42A2.94,2.94,0,0,0,28,164.44l7.31,4.32A2.87,2.87,0,0,0,37.72,168.88Z" style="opacity: 0.15; transform-origin: 32.21px 144.045px;" class="animable"></path></g><path d="M99.78,109.23l-13.52,1.42V97.46c0-.84-.58-1.18-1.31-.76l-47,27.09a2.9,2.9,0,0,0-1.32,2.27v42c0,.83.58,1.17,1.31.75l47-27.08a2.91,2.91,0,0,0,1.32-2.28V127.22L101,111.71A1.47,1.47,0,0,0,99.78,109.23Z" style="fill: rgb(0, 255, 136); transform-origin: 69.0201px 132.755px;" id="elb1t0955saj7" class="animable"></path><g id="elk54izqlfbdo"><path d="M99.78,109.23l-13.52,1.42V97.46c0-.84-.58-1.18-1.31-.76l-47,27.09a2.9,2.9,0,0,0-1.32,2.27v42c0,.83.58,1.17,1.31.75l47-27.08a2.91,2.91,0,0,0,1.32-2.28V127.22L101,111.71A1.47,1.47,0,0,0,99.78,109.23Z" style="fill: rgb(255, 255, 255); opacity: 0.35; transform-origin: 69.0201px 132.755px;" class="animable"></path></g></g><path d="M47.28,135.89a7.78,7.78,0,0,0-3.24,6.2c0,2.39,1.45,3.49,3.24,2.45a7.74,7.74,0,0,0,3.25-6.19C50.53,136,49.08,134.86,47.28,135.89Zm15.19-8.76a7.76,7.76,0,0,0-3.24,6.19c0,2.39,1.45,3.49,3.24,2.45a7.75,7.75,0,0,0,3.24-6.19C65.71,127.19,64.26,126.09,62.47,127.13Zm15.19-8.77a7.77,7.77,0,0,0-3.25,6.2c0,2.38,1.46,3.48,3.25,2.45a7.78,7.78,0,0,0,3.24-6.2C80.9,118.42,79.45,117.33,77.66,118.36Z" style="fill: rgb(255, 255, 255); transform-origin: 62.47px 131.452px;" id="elhi0u9roc0gq" class="animable"></path></g></g><g id="freepik--character-3--inject-128" class="animable" style="transform-origin: 208.81px 238.251px;"><g id="freepik--Laptop--inject-128" class="animable" style="transform-origin: 208.81px 257.012px;"><path d="M58.33,355.88c0,3,2.24,4.92,5,6.51l113.24,65.39a11.1,11.1,0,0,0,10,0L369.28,322.3c2.77-1.6,5-3.65,5-6.65s-2.24-4.84-5-6.44L256,243.83a11.1,11.1,0,0,0-10,0L63.34,349.31C60.57,350.9,58.33,352.89,58.33,355.88Z" style="fill: rgb(55, 71, 79); transform-origin: 216.305px 335.805px;" id="elkis2klu984" class="animable"></path><path d="M63.34,355.09l113.24,65.38a11,11,0,0,0,10,0L369.29,315c2.76-1.59,2.76-4.18,0-5.78L256,243.83a11.1,11.1,0,0,0-10,0L63.34,349.31C60.57,350.9,60.57,353.49,63.34,355.09Z" style="fill: rgb(69, 90, 100); transform-origin: 216.311px 332.156px;" id="eled4i072wl8b" class="animable"></path><path d="M181.59,421.68V429a10.16,10.16,0,0,1-5-1.19L63.34,362.39c-2.77-1.59-5-3.51-5-6.5,0-2.81,2-4.77,4.62-6.36-2.15,1.52-2.19,4.07.39,5.56l113.25,65.39A10.27,10.27,0,0,0,181.59,421.68Z" style="fill: rgb(38, 50, 56); transform-origin: 119.965px 389.266px;" id="elknrvvikyqf" class="animable"></path><path d="M78.79,350.16l167.89-96.93a5.23,5.23,0,0,1,4.72,0l6.11,3.43c1.3.75,1.3,2,0,2.72L89.6,356.3a5.23,5.23,0,0,1-4.72,0l-6.09-3.42C77.49,352.13,77.49,350.91,78.79,350.16Z" style="fill: rgb(38, 50, 56); transform-origin: 168.15px 304.765px;" id="eld52pfuageav" class="animable"></path><path d="M95.28,359.88,263.16,263a4.82,4.82,0,0,1,4.31-.23L311.17,288c1.08.62.9,1.74-.4,2.49l-167.7,96.8a4.83,4.83,0,0,1-4.31.24L94.87,362.37C93.79,361.75,94,360.64,95.28,359.88Z" style="fill: rgb(38, 50, 56); transform-origin: 203.025px 325.147px;" id="el2mr9oki0ot5" class="animable"></path><path d="M240.75,303.67l5.26-3c.22-.13.24-.33.05-.44l-5-2.9a.84.84,0,0,0-.77,0l-5.25,3c-.23.13-.25.32,0,.44l5,2.9A.85.85,0,0,0,240.75,303.67Zm-7.67-10.51-5.26,3c-.22.13-.24.33,0,.44l5,2.9a.82.82,0,0,0,.76,0l5.26-3c.22-.13.24-.32,0-.44l-5-2.9A.85.85,0,0,0,233.08,293.16Zm-17,9.81-8.9,5.14c-.22.12-.24.32,0,.44l5,2.9a.87.87,0,0,0,.77,0l8.89-5.13c.23-.13.25-.33,0-.44l-5-2.91A.85.85,0,0,0,216.1,303Zm9.3-5.37-5.26,3c-.22.12-.24.32,0,.44l5,2.9a.87.87,0,0,0,.77,0l5.25-3c.23-.13.25-.33.05-.44l-5-2.91A.85.85,0,0,0,225.4,297.6Zm-20.63,11.91-5.25,3c-.23.13-.25.33-.05.44l5,2.91a.85.85,0,0,0,.76,0l5.26-3c.22-.12.24-.32,0-.44l-5-2.9A.87.87,0,0,0,204.77,309.51Zm-7.68,4.43-5.26,3c-.22.13-.24.32,0,.44l5,2.9a.85.85,0,0,0,.76,0l5.26-3c.22-.13.24-.33,0-.44l-5-2.9A.82.82,0,0,0,197.09,313.94Zm19.71,11.85,5.26-3c.22-.12.24-.32,0-.44l-5-2.9a.87.87,0,0,0-.77,0l-5.25,3c-.23.13-.25.33-.05.44l5,2.91A.85.85,0,0,0,216.8,325.79Zm-7.68,4.43,5.26-3c.22-.13.24-.33,0-.44l-5-2.9a.82.82,0,0,0-.76,0l-5.26,3c-.22.13-.24.32,0,.44l5,2.9A.82.82,0,0,0,209.12,330.22Zm-7.68,4.44,5.25-3c.23-.13.25-.33.05-.44l-5-2.91a.85.85,0,0,0-.76,0l-5.26,3c-.22.13-.24.33-.05.44l5,2.91A.87.87,0,0,0,201.44,334.66Zm-7.69,4.44,5.26-3c.22-.13.24-.33.05-.44l-5-2.9a.84.84,0,0,0-.77,0l-5.25,3c-.23.13-.25.32,0,.44l5,2.9A.82.82,0,0,0,193.75,339.1Zm39.32-31,5.26-3c.22-.13.24-.33,0-.44l-5-2.91a.85.85,0,0,0-.76,0l-5.26,3c-.22.13-.24.33,0,.44l5,2.91A.85.85,0,0,0,233.07,308.1Zm-8.58,13.25,11.72-6.77c.22-.13.24-.32,0-.44L224,307.09a.85.85,0,0,0-.76,0l-6.07,3.5c-.22.13-.24.33,0,.44l6.47,3.73c.19.12.17.32,0,.44L218.74,318c-.23.12-.25.32-.05.44l5,2.9A.87.87,0,0,0,224.49,321.35Zm-35.08-3-5.26,3c-.22.13-.24.33,0,.44l5,2.91a.85.85,0,0,0,.76,0l5.26-3c.22-.13.24-.33,0-.44l-5-2.91A.85.85,0,0,0,189.41,318.38Zm-7.68,4.43-5.26,3c-.22.13-.24.32-.05.44l5,2.9a.84.84,0,0,0,.77,0l5.25-3c.23-.13.25-.33.05-.44l-5-2.9A.82.82,0,0,0,181.73,322.81Zm-42.52,47.36a.87.87,0,0,0,.77,0l5.25-3c.22-.13.25-.33.05-.44l-5-2.9a.84.84,0,0,0-.77,0l-5.25,3c-.23.13-.25.32,0,.44Zm-19-11.87-5.25,3c-.23.13-.25.33-.05.44l5,2.91a.85.85,0,0,0,.76,0l5.26-3c.22-.13.24-.33,0-.44l-5-2.91A.87.87,0,0,0,120.26,358.3Zm9.75,8.89a.85.85,0,0,0,.76,0l5.26-3c.22-.13.24-.33,0-.44l-5-2.9a.82.82,0,0,0-.76,0l-5.26,3c-.22.13-.24.32,0,.44ZM151.2,372l5.26-3c.22-.13.24-.32,0-.44l-5-2.9a.87.87,0,0,0-.77,0l-5.25,3c-.23.13-.25.33-.05.44l5,2.9A.82.82,0,0,0,151.2,372Zm-8.44,4.46a.82.82,0,0,0,.76,0l5.26-3c.22-.13.24-.33,0-.44l-5-2.9a.82.82,0,0,0-.76,0l-5.26,3c-.22.13-.24.32,0,.44ZM128,353.86l-5.26,3c-.22.13-.24.32,0,.44l5,2.9a.87.87,0,0,0,.77,0l5.25-3c.23-.13.25-.33.05-.44l-5-2.9A.82.82,0,0,0,128,353.86Zm38.41-22.18-5.26,3c-.22.13-.24.33,0,.44l5,2.9a.82.82,0,0,0,.76,0l5.26-3c.22-.13.24-.32,0-.44l-5-2.9A.85.85,0,0,0,166.36,331.68Zm-30.73,17.75-5.26,3c-.22.13-.24.33,0,.44l5,2.91a.85.85,0,0,0,.76,0l5.26-3c.22-.13.24-.33,0-.45l-5-2.9A.85.85,0,0,0,135.63,349.43ZM174,327.25l-5.25,3c-.23.13-.25.33,0,.44l5,2.91a.85.85,0,0,0,.76,0l5.26-3c.22-.13.24-.33.05-.44l-5-2.91A.87.87,0,0,0,174,327.25Zm-15.36,8.87-5.26,3c-.22.13-.24.33,0,.45l5,2.9a.87.87,0,0,0,.77,0l5.25-3c.23-.13.25-.33.05-.44l-5-2.91A.85.85,0,0,0,158.68,336.12ZM151,340.56l-5.25,3c-.23.13-.25.33-.05.44l5,2.9a.84.84,0,0,0,.77,0l5.25-3c.22-.12.25-.32,0-.44l-5-2.9A.84.84,0,0,0,151,340.56ZM143.31,345l-5.25,3c-.23.13-.25.32-.05.44l5,2.9a.82.82,0,0,0,.76,0l5.26-3c.22-.13.24-.33,0-.44l-5-2.9A.84.84,0,0,0,143.31,345Zm35.08,3,5.26-3c.22-.13.24-.32,0-.44l-5-2.9a.85.85,0,0,0-.76,0l-5.26,3c-.22.13-.24.33,0,.44l5,2.9A.84.84,0,0,0,178.39,348Zm71.67-64.61-5.26,3c-.22.13-.24.33,0,.45l5,2.9a.85.85,0,0,0,.76,0l5.26-3c.22-.13.24-.33,0-.44l-5-2.91A.85.85,0,0,0,250.06,283.36Zm-9.3,5.37-5.26,3c-.22.13-.24.33,0,.44l5,2.91a.85.85,0,0,0,.76,0l5.26-3c.22-.13.24-.33,0-.44l-5-2.91A.85.85,0,0,0,240.76,288.73Zm17-9.81-5.25,3c-.23.13-.25.32-.05.44l5,2.9a.82.82,0,0,0,.76,0l5.26-3c.22-.13.25-.32.05-.44l-5-2.9A.84.84,0,0,0,257.74,278.92Zm-42.46,39.45,5.26-3c.22-.13.24-.33,0-.44l-5-2.91a.85.85,0,0,0-.76,0l-5.26,3c-.22.13-.24.33,0,.45l5,2.9A.85.85,0,0,0,215.28,318.37Zm50.91-43.91a.85.85,0,0,0-.76,0l-5.26,3c-.22.13-.24.33-.05.44l5,2.91a.87.87,0,0,0,.77,0l5.25-3c.23-.13.25-.33.05-.44Zm-80.12,69.07,5.26-3c.22-.13.24-.33,0-.44l-5-2.91a.85.85,0,0,0-.76,0l-5.26,3c-.22.13-.24.33,0,.44l5,2.91A.85.85,0,0,0,186.07,343.53Zm94.22-54.39,5.25-3c.23-.13.25-.32,0-.44l-5-2.9a.84.84,0,0,0-.77,0l-5.25,3c-.22.13-.25.33-.05.44l5,2.9A.84.84,0,0,0,280.29,289.14Zm-14.87.28,5.26-3c.22-.13.24-.33,0-.44l-5-2.9a.82.82,0,0,0-.76,0l-5.26,3c-.22.13-.24.32,0,.44l5,2.9A.82.82,0,0,0,265.42,289.42Zm7.95-10.81a.82.82,0,0,0-.76,0l-5.26,3c-.22.13-.24.33,0,.44l5,2.91a.85.85,0,0,0,.76,0l5.26-3c.22-.12.24-.32,0-.44Zm1.62-.93,12.21,7.05a.87.87,0,0,0,.77,0l5.26-3c.22-.13.24-.33,0-.44l-12.21-7.06a.87.87,0,0,0-.77,0l-5.25,3C274.81,277.36,274.79,277.56,275,277.68Zm-17.74,9.83-5.26,3c-.22.13-.24.33-.05.44l5,2.91a.87.87,0,0,0,.77,0l5.25-3c.23-.13.25-.33.05-.45l-5-2.9A.85.85,0,0,0,257.25,287.51Zm-57.83,33.38-5.25,3c-.23.12-.25.32,0,.44l5,2.9a.85.85,0,0,0,.76,0l5.26-3c.22-.13.24-.33.05-.44l-5-2.91A.87.87,0,0,0,199.42,320.89Zm72.42-27.29a.85.85,0,0,0,.76,0l5.26-3c.22-.13.24-.33.05-.44l-5-2.91a.87.87,0,0,0-.77,0l-5.25,3c-.23.13-.25.33-.05.44Zm-64.73,22.86-5.26,3c-.22.13-.24.33,0,.44l5,2.9a.84.84,0,0,0,.77,0l5.25-3c.23-.13.25-.32.05-.44l-5-2.9A.85.85,0,0,0,207.11,316.46Zm-60.22,49.28a.87.87,0,0,0,.77,0l5.25-3c.23-.13.25-.33.05-.45l-5-2.9a.85.85,0,0,0-.76,0l-5.26,3c-.22.13-.24.33,0,.44ZM138,356.38l-5.26,3c-.22.13-.24.33,0,.44l5,2.91a.85.85,0,0,0,.76,0l5.26-3c.22-.12.24-.32,0-.44l-5-2.9A.85.85,0,0,0,138,356.38Zm17.38,4.89,5.26-3c.22-.13.24-.33,0-.44l-5-2.9a.82.82,0,0,0-.76,0l-5.26,3c-.22.12-.24.32,0,.44l5,2.9A.85.85,0,0,0,155.34,361.27Zm7.68-4.43,5.26-3c.22-.13.24-.32.05-.44l-5-2.9a.84.84,0,0,0-.77,0l-5.25,3c-.23.13-.25.33-.05.44l5,2.9A.82.82,0,0,0,163,356.84Zm7.69-4.44,5.25-3c.23-.13.25-.33,0-.44L171,346a.85.85,0,0,0-.76,0l-5.26,3c-.22.13-.25.33-.05.45l5,2.9A.87.87,0,0,0,170.71,352.4Zm-25.07-.46-5.25,3c-.23.12-.25.32,0,.44l5,2.9a.85.85,0,0,0,.76,0l5.26-3c.22-.13.24-.33.05-.44l-5-2.91A.87.87,0,0,0,145.64,351.94Zm7.69-4.44-5.26,3c-.22.13-.24.33,0,.44l5,2.9a.84.84,0,0,0,.77,0l5.25-3c.23-.13.25-.32.05-.44l-5-2.9A.85.85,0,0,0,153.33,347.5Zm30.73-17.74-5.26,3c-.22.13-.24.32,0,.44l5,2.9a.87.87,0,0,0,.77,0l5.25-3c.23-.13.25-.33,0-.44l-5-2.9A.82.82,0,0,0,184.06,329.76Zm-7.69,4.44-5.25,3c-.22.13-.25.33-.05.44l5,2.91a.87.87,0,0,0,.77,0l5.25-3c.23-.13.25-.33,0-.44l-5-2.91A.87.87,0,0,0,176.37,334.2Zm15.37-8.87-5.26,3c-.22.13-.24.33,0,.44l5,2.91a.85.85,0,0,0,.76,0l5.26-3c.22-.12.24-.32,0-.44l-5-2.9A.85.85,0,0,0,191.74,325.33ZM161,343.07l-5.26,3c-.22.13-.24.33,0,.44l5,2.91a.85.85,0,0,0,.76,0l5.26-3c.22-.13.24-.33,0-.44l-5-2.91A.85.85,0,0,0,161,343.07Zm7.68-4.44-5.25,3c-.23.13-.25.32-.05.44l5,2.9a.82.82,0,0,0,.76,0l5.26-3c.22-.13.24-.32,0-.44l-5-2.9A.87.87,0,0,0,168.69,338.63Zm-9.8,28.89,5.25-3c.23-.13.25-.33.05-.44l-5-2.91a.87.87,0,0,0-.77,0l-5.25,3c-.23.13-.25.33,0,.45l5,2.9A.87.87,0,0,0,158.89,367.52Zm-40.52-1.91-5-2.9a.82.82,0,0,0-.76,0l-5.26,3c-.22.13-.24.32,0,.44l5,2.9a.82.82,0,0,0,.76,0l5.26-3C118.55,365.92,118.57,365.73,118.37,365.61Zm10,2.51-5-2.9a.85.85,0,0,0-.76,0l-8.09,4.67c-.23.13-.25.32-.05.44l5,2.9a.84.84,0,0,0,.77,0l8.08-4.66C128.57,368.44,128.59,368.24,128.39,368.12Zm-17.52-8.24-5-2.91a.87.87,0,0,0-.77,0l-6.47,3.73c-.22.13-.24.33,0,.45l5,2.9a.85.85,0,0,0,.76,0l6.47-3.73C111.05,360.19,111.07,360,110.87,359.88Zm5-2.87a.82.82,0,0,0,.76,0l5.26-3c.22-.13.24-.32,0-.44l-5-2.9a.85.85,0,0,0-.76,0l-5.26,3c-.22.13-.24.32,0,.44Zm21.76,14.1-5-2.91a.87.87,0,0,0-.77,0l-10.11,5.83c-.22.13-.24.33,0,.45l5,2.9a.85.85,0,0,0,.76,0l10.11-5.83C137.77,371.42,137.79,371.22,137.59,371.11Zm3.55,6.24-5-2.9a.85.85,0,0,0-.76,0l-6.47,3.73c-.23.13-.25.33,0,.44l5,2.91a.85.85,0,0,0,.76,0l6.47-3.73C141.32,377.67,141.34,377.47,141.14,377.35ZM173,324a.82.82,0,0,0,.76,0l5.26-3c.22-.13.24-.32,0-.44l-5-2.9a.87.87,0,0,0-.77,0l-5.25,3c-.23.13-.25.33-.05.44Zm-15.37,8.88a.87.87,0,0,0,.77,0l5.25-3c.23-.12.25-.32.05-.44l-5-2.9a.85.85,0,0,0-.76,0l-5.26,3c-.22.13-.24.33,0,.44Zm-34.07,19.67a.85.85,0,0,0,.76,0l5.26-3c.22-.13.24-.33.05-.44l-5-2.91a.87.87,0,0,0-.77,0l-5.25,3c-.23.13-.25.33,0,.44Zm41.76-24.11a.85.85,0,0,0,.76,0l5.26-3c.22-.13.24-.33,0-.44l-5-2.91a.85.85,0,0,0-.76,0l-5.26,3c-.22.12-.24.32,0,.44Zm-15.37,8.87a.85.85,0,0,0,.76,0l5.26-3c.22-.13.24-.33.05-.44l-5-2.9a.84.84,0,0,0-.77,0l-5.25,3c-.23.13-.25.32,0,.44Zm-5,40.33a.82.82,0,0,0-.76,0l-8.09,4.67c-.22.13-.24.33,0,.44l5,2.9a.82.82,0,0,0,.76,0L149.9,381c.22-.13.24-.33,0-.44Zm-6-34a.85.85,0,0,0,.76,0l5.26-3c.22-.13.24-.33,0-.45l-5-2.9a.85.85,0,0,0-.76,0l-5.26,3c-.22.13-.24.33,0,.44Zm-7.69,4.43a.87.87,0,0,0,.77,0l5.25-3c.23-.13.25-.33,0-.44l-5-2.9a.82.82,0,0,0-.76,0l-5.26,3c-.22.13-.24.32,0,.44Zm156.05-52.65a.82.82,0,0,0-.76,0L273.54,303c-.22.12-.24.32,0,.44l5,2.9a.85.85,0,0,0,.76,0l12.94-7.47c.22-.13.24-.32,0-.44Zm-17,9.8a.85.85,0,0,0-.76,0l-5.26,3c-.22.13-.24.33,0,.45l5,2.9a.85.85,0,0,0,.76,0l5.26-3c.22-.13.24-.33,0-.44Zm-103.69,57.8,5.26-3c.22-.13.24-.32,0-.44l-5-2.9a.85.85,0,0,0-.76,0l-5.26,3c-.22.13-.24.33,0,.44l5,2.9A.84.84,0,0,0,166.57,363.09Zm88.33-48.92a.84.84,0,0,0-.77,0l-5.25,3c-.23.13-.25.32,0,.44l5,2.9a.82.82,0,0,0,.76,0l5.26-3c.22-.13.24-.33.05-.44Zm40-23.12a.87.87,0,0,0-.77,0l-5.25,3c-.23.13-.25.33-.05.44l5,2.91a.85.85,0,0,0,.76,0l5.26-3c.22-.13.24-.33,0-.44Zm12.71-1.53-12.21-7a.87.87,0,0,0-.77,0l-5.25,3c-.23.13-.25.33-.05.44l12.21,7a.84.84,0,0,0,.77,0l5.25-3C307.82,289.83,307.84,289.64,307.64,289.52Zm-81.45,41.22a.87.87,0,0,0-.77,0L219,334.5c-.22.13-.24.33,0,.44l5,2.91a.85.85,0,0,0,.76,0l6.47-3.74c.22-.12.24-.32.05-.44Zm19.41-11.21a.87.87,0,0,0-.77,0l-8.08,4.67c-.23.13-.25.33-.05.44l5,2.9a.82.82,0,0,0,.76,0l8.09-4.67c.22-.13.24-.33,0-.44ZM208.4,341a.87.87,0,0,0-.77,0l-43.26,25c-.23.13-.25.32-.05.44l5,2.9a.82.82,0,0,0,.76,0l43.27-25c.22-.13.24-.33,0-.44Zm-45.7,26.38a.85.85,0,0,0-.76,0l-6.47,3.73c-.22.13-.24.33,0,.45l5,2.9a.87.87,0,0,0,.77,0l6.47-3.73c.22-.13.24-.33,0-.44Zm54.59-31.51a.82.82,0,0,0-.76,0l-6.47,3.74c-.23.13-.25.32-.05.44l5,2.9a.84.84,0,0,0,.77,0l6.47-3.74c.22-.13.24-.33,0-.44Zm-63.48,36.65a.87.87,0,0,0-.77,0l-6.47,3.74c-.22.13-.24.33,0,.44l5,2.9a.82.82,0,0,0,.76,0l6.47-3.74c.22-.13.25-.32.05-.44Zm81.27-46.93a.85.85,0,0,0-.76,0l-6.47,3.74c-.22.12-.24.32,0,.44l5,2.9a.87.87,0,0,0,.77,0l6.47-3.73c.22-.13.24-.33,0-.44Zm27.5-15.87a.82.82,0,0,0-.76,0l-5.26,3c-.22.13-.24.33-.05.44l5,2.91a.87.87,0,0,0,.77,0l5.25-3c.23-.13.25-.32.05-.44Zm17.21-12,5.25-3c.23-.13.25-.33,0-.45l-5-2.9a.85.85,0,0,0-.76,0l-5.26,3c-.22.13-.24.33,0,.44l5,2.91A.87.87,0,0,0,279.79,297.72Zm-31.35,1.51,5.25-3c.23-.12.25-.32.05-.44l-5-2.9a.85.85,0,0,0-.76,0l-5.26,3c-.22.13-.24.33-.05.44l5,2.91A.87.87,0,0,0,248.44,299.23ZM228,327.6l15.37-8.87c.22-.13.24-.33,0-.44l-5-2.9a.82.82,0,0,0-.76,0l-15.37,8.87c-.22.13-.24.33,0,.45l5,2.9A.85.85,0,0,0,228,327.6Zm43.31-25.42a.85.85,0,0,0,.76,0l5.26-3c.22-.13.24-.32.05-.44l-5-2.9a.84.84,0,0,0-.77,0l-5.25,3c-.23.13-.25.32-.05.44ZM264.92,298l5.26-3c.22-.13.24-.32,0-.44l-5-2.9a.85.85,0,0,0-.76,0l-5.26,3c-.22.13-.24.33,0,.44l5,2.9A.82.82,0,0,0,264.92,298Zm-44.57,34,5.25-3c.23-.13.25-.32.05-.44l-5-2.9a.85.85,0,0,0-.76,0l-5.26,3c-.22.13-.24.33,0,.44l5,2.9A.84.84,0,0,0,220.35,332Zm34-20.05a.85.85,0,0,0,.76,0l5.26-3c.22-.13.24-.33,0-.44l-5-2.91a.85.85,0,0,0-.76,0l-5.26,3c-.22.13-.24.33,0,.44Zm-72.43,42.23,5.26-3c.22-.13.24-.32.05-.44l-5-2.9a.84.84,0,0,0-.77,0l-5.25,3c-.23.13-.25.32-.05.44l5,2.9A.82.82,0,0,0,181.93,354.22Zm7.69-4.44,5.25-3c.23-.13.25-.33,0-.45l-5-2.9a.85.85,0,0,0-.76,0l-5.26,3c-.22.13-.24.33-.05.44l5,2.91A.87.87,0,0,0,189.62,349.78Zm-15.37,8.87,5.26-3c.22-.13.24-.33,0-.44l-5-2.91a.85.85,0,0,0-.76,0l-5.26,3c-.22.13-.24.33,0,.44l5,2.91A.85.85,0,0,0,174.25,358.65ZM205,340.91l5.26-3c.22-.12.24-.32,0-.44l-5-2.9a.85.85,0,0,0-.76,0l-5.26,3c-.22.13-.24.33,0,.44l5,2.91A.85.85,0,0,0,205,340.91Zm-7.68,4.43,5.26-3c.22-.13.24-.33,0-.44l-5-2.9a.82.82,0,0,0-.76,0l-5.26,3c-.22.13-.24.32,0,.44l5,2.9A.82.82,0,0,0,197.3,345.34Zm15.36-8.87,5.26-3c.22-.13.24-.33.05-.44l-5-2.91a.87.87,0,0,0-.77,0l-5.25,3c-.23.12-.25.32,0,.44l5,2.9A.85.85,0,0,0,212.66,336.47Zm41.93-61.7a.85.85,0,0,0,.76,0l5.26-3c.22-.13.24-.33,0-.44l-1.33-.78a.87.87,0,0,0-.77,0l-5.25,3c-.23.13-.25.33-.05.45ZM216.4,298.94a.84.84,0,0,0,.77,0l5.25-3c.23-.12.25-.32.05-.44l-5-2.9a.82.82,0,0,0-.76,0l-5.26,3c-.22.13-.24.33,0,.44Zm15.37-8.87a.82.82,0,0,0,.76,0l5.26-3c.22-.13.24-.32,0-.44l-5-2.9a.87.87,0,0,0-.77,0l-5.26,3c-.22.13-.24.33,0,.44ZM207,304.36a.87.87,0,0,0,.77,0l5.25-3c.23-.13.25-.33.05-.44l-5-2.9a.82.82,0,0,0-.76,0L202,301c-.22.13-.24.32,0,.44Zm17.07-9.85a.85.85,0,0,0,.76,0l5.26-3c.22-.13.24-.33,0-.44l-5-2.91a.85.85,0,0,0-.76,0l-5.26,3c-.22.12-.24.32,0,.44Zm-32.43,18.72a.82.82,0,0,0,.76,0l5.26-3c.22-.13.24-.32,0-.44l-5-2.9a.82.82,0,0,0-.76,0l-5.26,3c-.22.13-.24.32,0,.44Zm7.68-4.43a.85.85,0,0,0,.76,0l5.26-3c.22-.13.24-.33,0-.44l-5-2.91a.87.87,0,0,0-.77,0l-5.25,3c-.23.13-.25.33-.05.44Zm39.88-25.16a.87.87,0,0,0,.77,0l5.25-3c.23-.13.25-.33,0-.44l-1.34-.78a.85.85,0,0,0-.76,0l-5.26,3c-.22.12-.24.32,0,.44Zm23-13.31a.84.84,0,0,0,.77,0l5.25-3c.23-.13.25-.32,0-.44l-1.34-.77a.82.82,0,0,0-.76,0l-5.26,3c-.22.13-.24.33-.05.44Zm10.57,6.1a.85.85,0,0,0,.76,0l5.26-3c.22-.13.24-.33,0-.44l-5-2.9a.82.82,0,0,0-.76,0l-5.26,3c-.22.13-.24.32,0,.44Zm14.63,16.85,5.26-3c.22-.13.24-.33,0-.44l-5-2.9a.82.82,0,0,0-.76,0l-5.26,3c-.22.13-.24.32,0,.44l5,2.9A.82.82,0,0,0,287.47,293.28ZM246.91,279.2a.82.82,0,0,0,.76,0l5.26-3c.22-.13.24-.32,0-.44l-1.34-.77a.85.85,0,0,0-.76,0l-5.26,3c-.22.13-.24.33,0,.44ZM184,317.67a.87.87,0,0,0,.77,0l5.25-3c.23-.13.25-.33,0-.44l-5-2.91a.85.85,0,0,0-.76,0l-5.26,3c-.22.13-.24.33,0,.44Z" style="fill: rgb(69, 90, 100); transform-origin: 203.103px 325.885px;" id="el9vqal6vo945" class="animable"></path><g id="freepik--tuch-pad--inject-128" class="animable" style="transform-origin: 249.285px 354.575px;"><polygon points="205.98 361.39 207.12 362.05 237.48 379.57 291.47 348.4 292.59 347.76 261.09 329.58 205.98 361.39" style="fill: rgb(38, 50, 56); transform-origin: 249.285px 354.575px;" id="elaztask7v0c" class="animable"></polygon><polygon points="290.78 348.8 261.09 331.68 207.81 362.45 237.48 379.57 290.78 348.8" style="fill: rgb(55, 71, 79); transform-origin: 249.295px 355.625px;" id="elrwirhxlkop" class="animable"></polygon></g><path d="M56.16,350.08c-2.19-1-2.79-2.75-3-5.82L43.34,200.63A10,10,0,0,1,48,192.18L230.66,86.71c2.77-1.6,4.79-2.47,7.34-.72s2.61,2.71,2.82,5.78l9.82,143.63a10,10,0,0,1-4.63,8.44L63.32,349.32C60.55,350.92,59,351.39,56.16,350.08Z" style="fill: rgb(55, 71, 79); transform-origin: 146.99px 217.933px;" id="el5jbx3rqg5dk" class="animable"></path><path d="M240.82,91.76c-.21-3.06-2.62-4.25-5.38-2.67L52.74,194.58a9.41,9.41,0,0,0-3.42,3.67l-4.77-2.39h0A9.61,9.61,0,0,1,48,192.18L230.66,86.7c2.76-1.59,4.8-2.47,7.34-.71S240.61,88.7,240.82,91.76Z" style="fill: rgb(69, 90, 100); transform-origin: 142.685px 141.635px;" id="el6mxe7hvqeyt" class="animable"></path><path d="M62.94,349.53c-2.51,1.49-4.1,1.67-6.78.55-2-.86-2.79-2.75-3-5.82L43.35,200.63a8.78,8.78,0,0,1,1.2-4.77l4.76,2.38h0a9.08,9.08,0,0,0-1.2,4.77l9.82,143.63C58.13,349.5,60.58,350.93,62.94,349.53Z" style="fill: rgb(38, 50, 56); transform-origin: 53.1419px 273.331px;" id="el3kumk3dfq76" class="animable"></path><path d="M55.91,200.07,231.73,98.59c1.66-1,3.1-.24,3.23,1.6l9.16,134a6,6,0,0,1-2.78,5.07L65.53,340.73c-1.66,1-3.11.24-3.23-1.6l-9.16-134A6,6,0,0,1,55.91,200.07Z" id="eliuskckwh6s" class="animable" style="transform-origin: 148.63px 219.66px;"></path><path d="M55.91,200.07a6,6,0,0,0-2.77,5.07l9,131.75L236,236.58a6,6,0,0,0,2.78-5.07l-9-131.76Z" style="fill: rgb(255, 255, 255); transform-origin: 145.96px 218.32px;" id="elzjxjl9bpl7c" class="animable"></path></g><g id="freepik--Character--inject-128" class="animable" style="transform-origin: 171.674px 180.145px;"><g id="freepik--Top--inject-128" class="animable" style="transform-origin: 171.674px 180.145px;"><g id="freepik--Arm--inject-128" class="animable" style="transform-origin: 227.997px 171.653px;"><path d="M242.65,174.24c1.48-7.19,8.44-13,16.7-.65,4.93,7.35,6.41,18,4.74,24.66-1.56,6.24-10.32,11.68-18,1.92C239.07,191.37,241.64,179.2,242.65,174.24Z" style="fill: rgb(38, 50, 56); transform-origin: 253.049px 185.952px;" id="elw31u3f4s2z9" class="animable"></path><g id="freepik--arm--inject-128" class="animable" style="transform-origin: 227.937px 171.167px;"><path d="M273.28,140.26a15.06,15.06,0,0,0-3.46-2.41,1,1,0,0,1-.4-.38,1.06,1.06,0,0,1-.08-.5c0-5.08,2.78-10,4.68-14.59,1-2.34,3.33-6,1-8.29a2.49,2.49,0,0,0-2.79-.3,6.32,6.32,0,0,0-2.18,2,61.73,61.73,0,0,0-5.69,9.6l-4.47,8.72A130.17,130.17,0,0,0,252.66,150a29.2,29.2,0,0,0-1.83,7.89c-.18,2.77-.09,5.6-1.39,8.14-2,3.92-19.06,24-19.06,24s-8.13-11.94-13.43-19.29c-13.46-18.64-19.07-29.26-41.69-28.59l6.42,39.82s16.67,20.84,30.12,35.28c10,10.79,16.21,15.45,26.5,7.84,5.13-3.79,14.69-21.22,19.62-31.45s8.3-15.32,11.46-19.46l5.6-7.33a28.82,28.82,0,0,0,4.29-7.45,19.12,19.12,0,0,0,1.34-5.87c.14-1.58-3.74-4.51-4.52-5.89-1.17-2.07-1.09-4.69-2.34-6.71A4.6,4.6,0,0,0,273.28,140.26Z" style="fill: rgb(200, 133, 106); transform-origin: 227.937px 171.167px;" id="elyenzktm18or" class="animable"></path><path d="M264,145.85c-.21-.55-.45-1.1-.69-1.65l0-.07c-.22.59-.41,1.19-.6,1.8s.25,1.32.49,2,.52,1.49.73,2.25a22.19,22.19,0,0,1,.8,4.65,18.35,18.35,0,0,1-2.41,9.86c-.06.11,0,.52.21.34a14.18,14.18,0,0,0,3.43-10A25.67,25.67,0,0,0,264,145.85Z" style="fill: rgb(175, 97, 82); transform-origin: 264.138px 154.603px;" id="elvh4ga480d2" class="animable"></path><path d="M230.38,190s-7.83,8.41-7.62,16.87c0,0-3.46-8.36,6-19.28Z" style="fill: rgb(175, 97, 82); transform-origin: 226.261px 197.23px;" id="elaxh1mqmej37" class="animable"></path></g><g id="freepik--Fingers--inject-128" class="animable" style="transform-origin: 265.707px 145.092px;"><path d="M254.93,140.42c1.27-1.79,2.69-3.48,4-5.17l4.19-5.42c.36-.47.81-1.17,1.47-1.21a2.16,2.16,0,0,1,1.68,1.18,6.91,6.91,0,0,1,.48,3.68,17.07,17.07,0,0,1-1.19,5.23c-1.2,3.17-2.65,6.25-3.61,9.51-1.55,5.28-11.27,12.21-11.27,12.21.09-3.13.14-6.25.23-9.38a19.76,19.76,0,0,1,.49-4.67,7.13,7.13,0,0,1,1.46-3.2C253.52,142.31,254.29,141.33,254.93,140.42Z" style="fill: rgb(200, 133, 106); transform-origin: 258.75px 144.525px;" id="el0cc2ccpm6kwd" class="animable"></path><path d="M258.92,135.25c1.41-2.11,2.86-4.14,4.38-6.2,1.07-1.58,3-.48,3.5,1,1.75,6.54-2.6,11.55-4.53,17.47,1.08-6,5.22-11,3.79-17.17-.35-.93-1.42-1.9-2.25-.83-1.59,1.93-3.21,3.89-4.89,5.77Z" style="fill: rgb(175, 97, 82); transform-origin: 263.063px 137.899px;" id="ellpuc0axxb9c" class="animable"></path><path d="M262,146.62a3.87,3.87,0,0,1-1.66,1.27,11.12,11.12,0,0,1-2.55.53c-.1,0-.12.23,0,.24l.39,0a7.17,7.17,0,0,0,2.8-.34,4.2,4.2,0,0,0,1.17-.69,3,3,0,0,0,.66-.72,8.66,8.66,0,0,0,.1-2A5.42,5.42,0,0,1,262,146.62Z" style="fill: rgb(175, 97, 82); transform-origin: 260.318px 146.796px;" id="elszaq32o3ya" class="animable"></path><path d="M276.8,141.17a11.59,11.59,0,0,0-3.66,2.22,23.67,23.67,0,0,0-3.2,2.61,11.93,11.93,0,0,0-1.42,2.08,39.22,39.22,0,0,0-2.9,5.66,2.62,2.62,0,0,0-.13,2.15,1.83,1.83,0,0,0,.81.72,3.37,3.37,0,0,0,3-.16,8.29,8.29,0,0,0,2.37-2,17.2,17.2,0,0,1,2.18-2.25,34.77,34.77,0,0,1,3-1.81,7.64,7.64,0,0,0,3.42-5c.3-1.81-.53-4.65-2.81-4.35A4.67,4.67,0,0,0,276.8,141.17Z" style="fill: rgb(200, 133, 106); transform-origin: 272.824px 148.953px;" id="elvngmbphzatl" class="animable"></path><path d="M273.14,143.39a13.89,13.89,0,0,0-4.75,5.37c-1,2.06-2.6,4.18-2.79,6.5a1.35,1.35,0,0,0,.9,1.14c1.68.72,3.38-.39,4.56-1.61a15.1,15.1,0,0,1,5.78-4.41,16.58,16.58,0,0,0-5.45,4.72c-1.18,1.38-3.23,2.62-5.12,1.81a2,2,0,0,1-1.25-1.59c.2-2.52,1.81-4.63,3-6.79a13,13,0,0,1,5.14-5.14Z" style="fill: rgb(175, 97, 82); transform-origin: 270.93px 150.279px;" id="el2titg0fdz1t" class="animable"></path><path d="M270.8,136.25a30.47,30.47,0,0,0-2.72,2.84c-1.26,1.57-2.6,3.5-2.41,5.62a2.26,2.26,0,0,0,.32,1,1.87,1.87,0,0,0,1.3.66,5.77,5.77,0,0,0,4.75-1.58,28.71,28.71,0,0,0,3.39-3.13,14.6,14.6,0,0,0,2.52-3.15,3.2,3.2,0,0,0-.43-3.12,4.18,4.18,0,0,0-2.12-1.55,2.76,2.76,0,0,0-2.65.58A12.28,12.28,0,0,0,270.8,136.25Z" style="fill: rgb(200, 133, 106); transform-origin: 271.914px 140.068px;" id="el1q5yv45ocv8" class="animable"></path><path d="M270.8,136.25c-1.86,2.05-3.92,4.13-4.71,6.82a3.54,3.54,0,0,0,.14,2.53c1.28,1.2,3.5.53,4.86-.34a33.45,33.45,0,0,0,4.34-3.55,23.16,23.16,0,0,1-4.1,3.93c-1.71,1.4-6.11,2-5.95-1.23.11-3.48,3-6,5.42-8.16Z" style="fill: rgb(175, 97, 82); transform-origin: 270.403px 141.51px;" id="eltl7nt5fb9k" class="animable"></path><path d="M274.71,151.34a23.12,23.12,0,0,0-4,3.61,22.52,22.52,0,0,0-1.69,2.2,12.92,12.92,0,0,0-1.42,2.34c-.59,1.44.73,2.08,2,2.14,1.78.09,3.5-1,4.84-2.11.46-.37.9-.77,1.38-1.11,1.44-1,3-1.64,4.09-3.08a4.53,4.53,0,0,0,.77-3.31,3.19,3.19,0,0,0-.5-1.5,2.37,2.37,0,0,0-2.5-.84,4.55,4.55,0,0,0-1.17.52A20.84,20.84,0,0,0,274.71,151.34Z" style="fill: rgb(200, 133, 106); transform-origin: 274.095px 155.616px;" id="els3wncprni4b" class="animable"></path><path d="M276.5,150.2a25.51,25.51,0,0,0-7.55,7.55c-1,1.4-2.17,3.22.37,3.58,1.77.22,3.34-.79,4.74-1.8,1.77-1.65,4.21-2.42,5.84-4.2a9.21,9.21,0,0,1-2.72,2.36c-2.53,1.54-4.63,4.53-7.93,4.19-3-.43-2.12-2.68-.74-4.43a21.67,21.67,0,0,1,8-7.25Z" style="fill: rgb(175, 97, 82); transform-origin: 273.569px 156.053px;" id="el9a6wysjtpxo" class="animable"></path></g><path d="M180.29,141.17c15.62,1.73,18.93,4.92,26.62,13.93s23.47,32,23.47,32l14.74-18.25s-5.49,8.51-2.23,23.61c2.29,10.62,12.3,16.44,19.09,9.77-18.76,20.42-23.22,27.53-32.93,27.58-6.91,0-13.6-7.08-19-12.78s-29.77-30.82-29.77-30.82Z" style="fill: rgb(55, 71, 79); transform-origin: 221.13px 185.49px;" id="el5iolqy0zdv4" class="animable"></path><path d="M230.38,187.11A31.49,31.49,0,0,0,224,212.54a28.35,28.35,0,0,1,4.14-28.66Z" style="fill: rgb(38, 50, 56); transform-origin: 226.112px 198.21px;" id="el0kndnr1t4af" class="animable"></path></g><g id="freepik--Head--inject-128" class="animable" style="transform-origin: 149.419px 116.271px;"><g id="freepik--head--inject-128" class="animable" style="transform-origin: 149.419px 116.271px;"><path d="M131.56,130.62c0-4.22-7.62-14.75-10.92-20.36s-6.88-22.43,3.57-27c-1.81-9.16,11.2-16.74,22.89-19.07,16.56-3.29,30.26,3.93,34,13.58s-1.89,15.49-1.89,15.49Z" style="fill: rgb(38, 50, 56); transform-origin: 149.826px 97.0017px;" id="el60dhvzy13n9" class="animable"></path><path d="M122.64,122.08c4.53,2.94,8.71-.6,8.71-.6l.49,21c.94,3.58,8.72,28.15,29.68,26.61,10.26-.75,9-20.84,2.1-26.15l-.05-4.57a41.58,41.58,0,0,0,6.1-.49c5.64-.85,9.2-5.3,10.92-11.38,2.76-9.79,1.95-23.33-.54-42.11-6.28-4.92-27.33-5.31-40.62,3,.58,11.21-3.14,14.26-3.15,18.33a10.61,10.61,0,0,1-2.44,3.14c-2.07,1.77-3.91-2.71-5.44-4.68-2.67-3.42-8.72-4.15-11.55,1.78S118.73,119.55,122.64,122.08Z" style="fill: rgb(200, 133, 106); transform-origin: 149.154px 125.02px;" id="elu1z3qzv1y1" class="animable"></path><path d="M156.7,102.15a2.52,2.52,0,1,1-2.52-2.63A2.57,2.57,0,0,1,156.7,102.15Z" style="fill: rgb(38, 50, 56); transform-origin: 154.182px 102.04px;" id="elyroptymnqf" class="animable"></path><path d="M155,95.26l-5.24,3.23a3.23,3.23,0,0,1,1-4.34A3,3,0,0,1,155,95.26Z" style="fill: rgb(38, 50, 56); transform-origin: 152.155px 96.0885px;" id="elr8fmi7fzbp" class="animable"></path><path d="M178.18,96.3l-6-1.49a3,3,0,0,1,3.65-2.32A3.26,3.26,0,0,1,178.18,96.3Z" style="fill: rgb(38, 50, 56); transform-origin: 175.214px 94.3524px;" id="elok6zyyevkzc" class="animable"></path><path d="M176.91,101.26a2.56,2.56,0,0,1-2.52,2.61,2.62,2.62,0,1,1,2.52-2.61Z" style="fill: rgb(38, 50, 56); transform-origin: 174.29px 101.252px;" id="elhb5q3s0udbr" class="animable"></path><path d="M162,94.81l1.6,17.66,9.85-2.57C170.48,104,166.23,99.44,162,94.81Z" style="fill: rgb(175, 97, 82); transform-origin: 167.725px 103.64px;" id="el3v8ea5tm6i4" class="animable"></path><path d="M136.8,102.94c-1.58,7.92,5.51,14.48,9.86,14.8,5.75.41,8.27-2.91,18.41-3.83,6.15-.55,8.24,1.1,11.87,2.22,2.68.83,4.8.15,5-2.37a113,113,0,0,0-.21-14A135.65,135.65,0,0,1,182.82,120c-.07,5.74-1.5,11.2-4.39,14.14-4,4.06-12.34,7.64-23.91,6.17-11.39-1.45-17.28-4.51-19.63-10.27-4.36-10.7-2.38-18.71-5.53-24.33C127.86,103,136.8,102.94,136.8,102.94Z" style="fill: rgb(38, 50, 56); transform-origin: 156.02px 120.203px;" id="elmav3d7scjys" class="animable"></path><path d="M164,117.65c-5.8.41-7.6,1.63-7.51,5.62.11,5.71.57,7.6,2.76,7.69,2.59.12,4.48.11,4.42-1.51s-.14-3-.7-3.6c-1-1-.7-1.19,1.85-1.37s2.56.28,1.88,1.13c-.5.62-.28,2.57-.17,3.69s.43,1.67,4.05,1c3.16-.6,2.39-3.11,1.88-8C172.14,119,170.58,117.2,164,117.65Z" style="fill: rgb(200, 133, 106); transform-origin: 164.708px 124.293px;" id="elcolc6stqoni" class="animable"></path><path d="M160.38,119.45l7.79.36a3.83,3.83,0,0,1-4,3.83A4.08,4.08,0,0,1,160.38,119.45Z" style="fill: rgb(175, 97, 82); transform-origin: 164.274px 121.547px;" id="elebsagqen3oo" class="animable"></path><path d="M161.49,120.52a4.64,4.64,0,0,0-.93.17,4,4,0,0,0,3.63,3,3.62,3.62,0,0,0,1.24-.17A3.58,3.58,0,0,0,161.49,120.52Z" style="fill: rgb(255, 168, 167); transform-origin: 162.995px 122.095px;" id="elfeezvchow3p" class="animable"></path></g></g><g id="freepik--Chest--inject-128" class="animable" style="transform-origin: 151.146px 223.399px;"><path d="M208.38,252.48,103.91,312.79c-.57-25.82.67-44.22-1.45-69-1.55-18.26-7.74-45.94-8.47-65.72-.46-11.86,1.05-20.88,6.69-23.34,14.67-6.37,27.38-11.41,30-13.26a32.86,32.86,0,0,0,10.61,9.32,36.46,36.46,0,0,0,16.32,4.7c6.91-1.12,6-12.51,6-12.51l0-2.61q1.38-.15,2.67-.39c5,.21,15.42.83,18.24,2.21,7.05,3.43,15.38,11.43,20.32,56.21C206.22,211.12,207.49,233.9,208.38,252.48Z" style="fill: rgb(69, 90, 100); transform-origin: 151.146px 226.385px;" id="elre0oumay5i" class="animable"></path><path d="M165.51,187.11s-6.22-6.66-6.82-9.09c-2.61-10.57-5.86-21-5.86-21a42.05,42.05,0,0,1-13-3.2c-7.17-3-9.24-9-10.21-11.72a44.41,44.41,0,0,0,.58-6.09c0-2.15,1.48-2,1.48-2a15,15,0,0,0,3.54,8c5.21,6.34,15.52,7.29,17.8,7.66,1.71,2.13,4.59,5.32,4.59,5.32a46.55,46.55,0,0,0,1.86-6.13,7.39,7.39,0,0,0,4.18-7.09l-.11-1.42c.42,0,.83-.09,1.24-.15a8.84,8.84,0,0,1,.34.87c.79,2.3,2.31,6.64.51,10.37a8.24,8.24,0,0,1-4.38,4s3.78,12.79,5.48,20.42C167.17,180.52,165.51,187.11,165.51,187.11Z" style="fill: rgb(0, 255, 136); transform-origin: 148.212px 160.559px;" id="elw854o63pkv" class="animable"></path></g><path d="M112.74,77c-1.63-7.47.37-18.92,20.64-26.07,21.59-7.61,31.11-.82,33.69,3.66Z" style="fill: rgb(0, 255, 136); transform-origin: 139.683px 62.2498px;" id="el7hrzcsys6w2" class="animable"></path><g id="elh6uw4vqic6j"><path d="M120.17,71.54a158.7,158.7,0,0,1,14.72-14.85c-3.54.39-6.95,1.6-10.49,2a.9.9,0,0,1-.86-.2.81.81,0,0,1-.11-.65,5.73,5.73,0,0,1,1.44-3.12c-12.31,7-13.49,16-12.13,22.26L117,75.25C118,74,119.1,72.77,120.17,71.54Z" style="opacity: 0.15; transform-origin: 123.594px 65.85px;" class="animable"></path></g><path d="M121.4,101.84c2.37-12.38,12.8-24.84,32.78-28.18S181.9,80.5,181.9,80.5s-1.21-6.08-3.14-13.16c-3.56-13-16.65-21.74-42.51-12.69S107.58,79.44,112.48,92a89.27,89.27,0,0,0,5.75,11.94A8.32,8.32,0,0,1,121.4,101.84Z" style="fill: rgb(230, 230, 230); transform-origin: 146.195px 77.437px;" id="elmjwlkliegr" class="animable"></path><g id="elhycbb0taulc"><path d="M121.4,101.84c2.37-12.38,12.8-24.84,32.78-28.18l1.85-.27a42.06,42.06,0,0,0-21,6.12c-2.54,1.49-5,3.21-7.77,4.17s-6.06,1-8.49-.61c-2.87-2-3.83-5.76-3.82-9.23a24.28,24.28,0,0,1,.9-6.39c-6.43,7.85-6.36,16.79-3.34,24.5a89.27,89.27,0,0,0,5.75,11.94A8.32,8.32,0,0,1,121.4,101.84Z" style="opacity: 0.15; transform-origin: 133.279px 85.67px;" class="animable"></path></g><path d="M130.5,223.31c3.51-.42,9,1.93,10.52,12.09,1.95,13-.78,23.45-9.61,25.6-9.7,2.37-14.23-13.36-14.12-19.95S122,224.34,130.5,223.31Z" style="fill: rgb(38, 50, 56); transform-origin: 129.453px 242.253px;" id="elmc215va4kq" class="animable"></path><g id="freepik--arm--inject-128" class="animable" style="transform-origin: 119.209px 213.525px;"><path d="M98.34,159.75c-13.44,5.17-17,10.41-21,24.93s-12.39,53-13.27,72.23c5.2,7.11,33.22-16,33.22-16s8.18-31.36,10.63-41.92S110.93,163.19,98.34,159.75Z" style="fill: rgb(200, 133, 106); transform-origin: 86.6967px 209.009px;" id="elsj3jz1md1a" class="animable"></path><path d="M101.59,224.3c-7.66,3-21.09,5.6-25.93,13.89l23.73-5.36C100.37,229,100.36,229.12,101.59,224.3Z" style="fill: rgb(175, 97, 82); transform-origin: 88.625px 231.245px;" id="el3sz6a9lrrab" class="animable"></path><path d="M147.88,231c3.09-.76,12.57-11.72,14-14.52a44.73,44.73,0,0,1,5.86-8.54c2.17-2.5,3.13-5.61,2.24-6.91s-2-1.94-3.67-.45a26.15,26.15,0,0,1-8,5.26c-4.57,2-9.37,4-11.19,9.88S147.88,231,147.88,231Z" style="fill: rgb(175, 97, 82); transform-origin: 158.39px 215.36px;" id="el17bywrkwslm" class="animable"></path><path d="M153.28,212.09s6.61-.05,9.18.2,6.49,2.81,8.63,2.9c2.44.1,4-1.44,3-3.2s-6.71-5.29-8.73-6.09a24.74,24.74,0,0,0-8.37-1.66c-3.83-.15-8.21-.58-9.61.13-1.73.89-3.2,3.81-4,5.39s-3.93,6.9-5.73,9.88c-1.47,2.44-2.15,3.75-5.37,4.55-3.87.95-19.89,4-29.86,5.55-7.4,1.16-19,2.66-26.6,8.15s-10.34,9.62-11.63,17.43c-.73,4.42-.16,14.4,24.29,11.44,12.89-1.56,24.76-8.75,33.06-13.45,9.37-5.31,17.49-9.51,20-9.95,3.46-.63,7.34-1.78,9.7-4.81,3.06-3.93,4.51-5.7,9-6.71,2.46-.55,4.47-.63,6.62-1.54s3.38-2.28,3.23-3.48-1.7-1.15-1.7-1.15a2.63,2.63,0,0,0,.42-1.31,6.82,6.82,0,0,0-.08-1.88,5.9,5.9,0,0,0,1.76-.06c1-.18,1.64-1.9,1.75-2.84s-2-2.86-3.25-3.39-5-2.34-6.15-2.65S153.28,212.09,153.28,212.09Z" style="fill: rgb(200, 133, 106); transform-origin: 119.209px 235.637px;" id="elvlkbstjl6go" class="animable"></path><path d="M170.51,222.42a1.82,1.82,0,0,0,1.06-.92,5.25,5.25,0,0,1-2.65.09c-1.87-.26-6.82-2-9.94-2.18s-6.57.06-7.89-.6c.87.62,4.28,1.17,7.92,1.47a61.42,61.42,0,0,1,9.74,2.2A5.9,5.9,0,0,0,170.51,222.42Z" style="fill: rgb(175, 97, 82); transform-origin: 161.33px 220.665px;" id="elop220kql4yq" class="animable"></path><path d="M164.71,226.32c-1.16.15-6.45-.21-8.39-.29s-5.12-.49-5.12-.49a20.89,20.89,0,0,0,4.18,1c1.81.15,7.11.5,9.15.36a7.05,7.05,0,0,0,3.88-1.2,2.63,2.63,0,0,0,.42-1.31C168,225.75,165.87,226.16,164.71,226.32Z" style="fill: rgb(175, 97, 82); transform-origin: 160.015px 225.661px;" id="el31npd0m6uzj" class="animable"></path></g><path d="M109.91,198.25c-1.93,7.72-7,28.4-7,28.4l27.64-3.34c-3.7.45-10.75,6.87-10.4,20,.47,17.52,11.31,17.67,11.31,17.67s-23.65,5.94-36.08,8.07c-8.56,1.46-22.35,1.88-26.23,0s-7.78-3.95-6.16-18.38S70.07,206.33,75.66,185s11.74-24.51,25-30.2C113.5,160.48,112.33,188.53,109.91,198.25Z" style="fill: rgb(55, 71, 79); transform-origin: 97.0368px 212.554px;" id="elvz115sulq2s" class="animable"></path><path d="M102.86,226.65c-12.36,3.08-21.37,10.55-23.41,20.07,0-11.55,8.84-20.55,24.56-24.72Z" style="fill: rgb(38, 50, 56); transform-origin: 91.73px 234.36px;" id="elmklfv0lixgi" class="animable"></path></g></g></g><g id="freepik--Plants--inject-128" class="animable" style="transform-origin: 59.2343px 351.449px;"><g id="freepik--plants--inject-128" class="animable" style="transform-origin: 59.2343px 351.449px;"><path d="M44.43,392.13l-10.32-6S28,360.65,30.42,337.69c3.44-32.28,24.69-44.43,32.77-41.65s10.42,12.18-2.95,31.41C52.35,338.79,42.66,362.42,44.43,392.13Z" style="fill: rgb(0, 255, 136); transform-origin: 49.8067px 343.893px;" id="elmrfo7c9jfp" class="animable"></path><g id="ellypy3ridt2j"><g style="opacity: 0.65; transform-origin: 49.8067px 343.893px;" class="animable"><path d="M44.43,392.13l-10.32-6S28,360.65,30.42,337.69c3.44-32.28,24.69-44.43,32.77-41.65s10.42,12.18-2.95,31.41C52.35,338.79,42.66,362.42,44.43,392.13Z" style="fill: rgb(255, 255, 255); transform-origin: 49.8067px 343.893px;" id="elv6xaziqg8vd" class="animable"></path></g></g><path d="M40.16,379.6l.09,0a.7.7,0,0,0,.57-.83c-5.65-29.78,4.75-63.24,17.63-77.16a.71.71,0,1,0-1.05-1c-13.12,14.17-23.72,48.18-18,78.4A.72.72,0,0,0,40.16,379.6Z" style="fill: rgb(255, 255, 255); transform-origin: 48.2312px 339.993px;" id="el7y9qy0r40tr" class="animable"></path><path d="M70.4,407.13c1.54.78,5.64-2.73,6.78-3.58a14.29,14.29,0,0,0,4.48-5.7,13.33,13.33,0,0,0,.79-8.11,32.83,32.83,0,0,0-1.23-4.22l-1.41-4.1a10.49,10.49,0,0,1-.82-4.15c.22-2.86,2.64-5,4.85-6.81,2.44-2,5-4.67,4.76-8.09-.14-2.63-1.63-5-3.37-7s-3.77-3.72-5.36-5.84a8.4,8.4,0,0,1-2-5.22,8.79,8.79,0,0,1,1-3.38c1.1-2.29,2.59-4.41,3.3-6.84s.44-5.41-1.51-7c-1.6-1.33-3.89-1.41-6-1.17a13.42,13.42,0,0,0-5.37,2.2c-5.28,3.29-8.06,9.88-13.7,12.49-2.18,1-4.6,1.33-6.89,2.06s-4.58,2-5.55,4.23c-1.9,4.33,2.29,9.34,1,13.9-1.12,4-4.9,5.74-6.88,9.43a8.43,8.43,0,0,0-.75,5.24,24.9,24.9,0,0,0,2.63,8.67,77.52,77.52,0,0,0,5.21,8S70.17,407,70.4,407.13Z" style="fill: rgb(0, 255, 136); transform-origin: 62.5018px 366.528px;" id="el7uqy2dlwyc2" class="animable"></path><g id="el3tm3yxtvtcj"><g style="opacity: 0.3; transform-origin: 62.5018px 366.528px;" class="animable"><path d="M70.4,407.13c1.54.78,5.64-2.73,6.78-3.58a14.29,14.29,0,0,0,4.48-5.7,13.33,13.33,0,0,0,.79-8.11,32.83,32.83,0,0,0-1.23-4.22l-1.41-4.1a10.49,10.49,0,0,1-.82-4.15c.22-2.86,2.64-5,4.85-6.81,2.44-2,5-4.67,4.76-8.09-.14-2.63-1.63-5-3.37-7s-3.77-3.72-5.36-5.84a8.4,8.4,0,0,1-2-5.22,8.79,8.79,0,0,1,1-3.38c1.1-2.29,2.59-4.41,3.3-6.84s.44-5.41-1.51-7c-1.6-1.33-3.89-1.41-6-1.17a13.42,13.42,0,0,0-5.37,2.2c-5.28,3.29-8.06,9.88-13.7,12.49-2.18,1-4.6,1.33-6.89,2.06s-4.58,2-5.55,4.23c-1.9,4.33,2.29,9.34,1,13.9-1.12,4-4.9,5.74-6.88,9.43a8.43,8.43,0,0,0-.75,5.24,24.9,24.9,0,0,0,2.63,8.67,77.52,77.52,0,0,0,5.21,8S70.17,407,70.4,407.13Z" style="fill: rgb(255, 255, 255); transform-origin: 62.5018px 366.528px;" id="elgd7c4i67dtn" class="animable"></path></g></g><path d="M55.46,399.34h0a.68.68,0,0,0,.63-.73c-2.48-26.79,8.68-57.06,17.44-66.13a.68.68,0,0,0,0-1,.69.69,0,0,0-1,0c-8.93,9.26-20.32,40-17.81,67.19A.67.67,0,0,0,55.46,399.34Z" style="fill: rgb(255, 255, 255); transform-origin: 64.058px 365.305px;" id="elmy2en7zd9qo" class="animable"></path><path d="M58.13,366.32a.65.65,0,0,0,.19,0c8.49-3.1,19.21-4.11,19.32-4.12a.68.68,0,0,0,.61-.74.65.65,0,0,0-.73-.61c-.11,0-11,1-19.66,4.2a.67.67,0,0,0-.4.87A.68.68,0,0,0,58.13,366.32Z" style="fill: rgb(255, 255, 255); transform-origin: 67.8344px 363.586px;" id="elsak3vo6lhne" class="animable"></path></g></g><g id="freepik--character-2--inject-128" class="animable" style="transform-origin: 433.661px 255.346px;"><g id="freepik--character--inject-128" class="animable" style="transform-origin: 433.661px 255.346px;"><g id="freepik--arm--inject-128" class="animable" style="transform-origin: 463.903px 217.64px;"><path id="freepik--arm--inject-128" d="M460.92,214.59l-7.07-18,1.09-22.12c4.49.37,7.64,2,10,7.55s7.12,23.44,8,27.61a37.74,37.74,0,0,1,.81,11c-.21,4.71-2.28,13.24-3.06,17.88-.37,2.15-.56,4.23-.77,6.41a49.57,49.57,0,0,1-1.56,6.64,6.11,6.11,0,0,1-1.61,2.78c-.49.49-1.19.6-1.66,1.06s-.52,1.21-1.19,1.61-1.64.28-2.27.73a19.81,19.81,0,0,1-2,1.52,4.27,4.27,0,0,0-1.67,1.16c-.4.52-.74,1.63-1.54,1.62s-1.1-.86-1.21-1.6a6.76,6.76,0,0,1,1.08-4.11,39.42,39.42,0,0,1,2.26-3.89,9.53,9.53,0,0,0,1.58-3.91c.21-.94,0-2.11-1.11-1.47-1.35.74-2.71,2.19-4.41,2-1.17-.1-1.31-1-.7-1.82a33.61,33.61,0,0,0,2.71-4.25c.82-1.51,1.47-3.09,2.33-4.57a19.56,19.56,0,0,1,1.54-2.22c1.53-2,1.26-4.5,1.26-6.85C461.82,226.14,461.22,218.79,460.92,214.59Z" style="fill: rgb(255, 168, 167); transform-origin: 463.703px 218.255px;" class="animable"></path><path d="M454.81,173.24c6.53.57,9.78,4.72,12,11.26,2.27,6.71,5.6,18.74,6.27,21.93a44.51,44.51,0,0,1,1.37,11.77c-.18,4.71-3.3,21.31-3.3,21.31a6.78,6.78,0,0,1-6.42.32c-4.74-2-4.24-4.05-4.24-4.05l0-21.12-7.14-17.83Z" style="fill: rgb(55, 71, 79); transform-origin: 463.903px 206.864px;" id="elz79wbok0jh" class="animable"></path><path d="M471.92,235.19l-.22.08a11.4,11.4,0,0,1-2.17.34,12.83,12.83,0,0,1-4.27-.51,14.84,14.84,0,0,1-3.86-1.77c-.31-.2-.62-.41-.92-.63v1.09c.56.4,1.06.72,1.21.81a14.67,14.67,0,0,0,4.12,1.64,13.63,13.63,0,0,0,4.27.31c.52-.05,1.08-.13,1.64-.24C471.79,236,471.85,235.58,471.92,235.19Z" style="fill: rgb(0, 255, 136); transform-origin: 466.2px 234.65px;" id="elc1ekeet3ibo" class="animable"></path></g><g id="freepik--Bottom--inject-128" class="animable" style="transform-origin: 428.391px 302.579px;"><path d="M463,355.12c0,1.24.24,1.72-1.35,2.84s-5.06,1.64-7.69,1a7.16,7.16,0,0,1-4.26-2.44,34.4,34.4,0,0,1-2.47-3.55,18.38,18.38,0,0,0-4.67-2.5c-2.17-.92-6.34-2.75-7.83-6.12a7.6,7.6,0,0,1-.47-5.76Z" style="fill: rgb(38, 50, 56); transform-origin: 448.457px 348.914px;" id="elet8jeifimh" class="animable"></path><path d="M449.1,338.06c4.21,2.62,7.76,9.2,13.52,7.2.29,3.22,1.19,6.69.38,9.86-2.46,2.89-7.83,3.44-10.93,1.36-1.56-1.26-2.43-2.74-3.94-4.08A14.93,14.93,0,0,0,444,350a44.42,44.42,0,0,1-5-2.65C429.66,340.82,434.29,328.84,449.1,338.06Z" style="fill: rgb(55, 71, 79); transform-origin: 448.747px 346.216px;" id="eldj3w3bogx6u" class="animable"></path><path d="M434.25,370.2c0,1.34-.1,2.35-1,2.92s-7.32,1.58-9,1.77-2-.88-3.17-.5-4,2.33-8.22,3.22-7.66,1.83-13.51,0-6.42-4-6.34-5.87S434.25,370.2,434.25,370.2Z" style="fill: rgb(38, 50, 56); transform-origin: 413.627px 374.418px;" id="el2ukmygchpku" class="animable"></path><path d="M433.4,357.64c.94,3.85,1.94,9.62.85,12.56-1.18,1.11-5.13,1.76-8.57,2.2a27.84,27.84,0,0,0-9.11,2.7c-6.68,2.66-18.43,3.62-23.11-2.36-4.68-8,19.65-6,22.63-15.28C417.18,354.09,429,358.55,433.4,357.64Z" style="fill: rgb(55, 71, 79); transform-origin: 413.795px 366.681px;" id="elvrlaqjgfhr" class="animable"></path><path d="M463.75,311.79c-1.73-34,.82-58.76-2.28-85.23,0,0-51.06-1.32-52.25,14.36,0,0,.81,46.62,1.62,63.52.88,18.23,2.93,46.49,3.34,55.7,6,7.22,20.89,4.16,20.89,4.16-.08-6.36,1.85-30.81,1.58-49.87,0,0,1.52-18.69,2.1-24,0,0,4.3,40.47,5.69,53.2,3.11,7.09,17.36,8,19,5C463.48,348.61,464.25,321.53,463.75,311.79Z" style="fill: rgb(235, 235, 235); transform-origin: 436.569px 295.738px;" id="el7xave7vh8yh" class="animable"></path><path d="M458.59,227.52h2c1.65,14.66,1.59,29.12,1.53,44.42-.05,12.36-.1,25.15.65,39.89.46,9-.18,33.44-.26,36.44-.44.44-1.84,1-4.4,1-5,0-10.9-2-12.71-5.88-1.39-12.75-5.63-52.64-5.67-53.05l-1-9-1,9c-.56,5-1.95,22-2.11,24v.1c.17,12.14-.55,26.46-1.08,36.91-.27,5.3-.48,9.61-.51,12.13a40.43,40.43,0,0,1-6.1.48c-4.17,0-9.72-.73-12.83-4.21-.19-4.13-.68-11.68-1.24-20.37-.75-11.61-1.6-24.77-2.09-35-.79-16.46-1.59-61.72-1.62-63.45.82-9.9,25.53-13.43,48.39-13.43m0-1c-10.79,0-48.35,1-49.37,14.38,0,0,.81,46.62,1.62,63.52.88,18.23,2.93,46.49,3.34,55.7,3.26,3.91,9.11,4.81,13.8,4.81a38.77,38.77,0,0,0,7.09-.65c-.08-6.36,1.85-30.81,1.58-49.87h0s1.52-18.69,2.1-24c0,0,4.3,40.47,5.69,53.2,2,4.61,8.75,6.6,13.67,6.6,2.65,0,4.78-.58,5.37-1.64,0,0,.77-27.08.27-36.82-1.73-34,.82-58.76-2.28-85.23,0,0-1.06,0-2.88,0Z" style="fill: rgb(224, 224, 224); transform-origin: 436.519px 295.705px;" id="eltzzh1zscau8" class="animable"></path><path d="M438.75,290.45v-9l1.87-19s9.13-1.6,14.41-7.89c-1.44,5-7.17,9.4-10.81,10.63L441.32,287l.49,22.93Z" style="fill: rgb(224, 224, 224); transform-origin: 446.89px 282.245px;" id="elwoux937nql8" class="animable"></path><path d="M419.17,258.84c-4.27-4.1-3.68-12.67-3.3-18,0-.45.06-.88.09-1.27l-.78-.05c0,.4-.06.82-.09,1.27-.4,5.69-1.06,15,4.08,19.09Z" style="fill: rgb(38, 50, 56); transform-origin: 416.997px 249.7px;" id="elhbbyspeabtu" class="animable"></path></g><g id="freepik--top--inject-128" class="animable" style="transform-origin: 434.184px 205.458px;"><polygon points="427.66 170.03 429.5 181.14 445.8 179.33 443.11 167.45 427.66 170.03" style="fill: rgb(255, 168, 167); transform-origin: 436.73px 174.295px;" id="el8brbapeek98" class="animable"></polygon><path d="M420.38,150.92c-1,1.6-4.26,6.42-4.32,7.3l3.15,1.54Z" style="fill: rgb(242, 143, 143); transform-origin: 418.22px 155.34px;" id="el3ot1ebe3rtx" class="animable"></path><path d="M427.79,138.86c-4.75-.06-7.49,3.55-7.93,13.69,0,.4-.54,1.07-.84,2.61-1.28,6.6.34,12.62,1.58,14.14,2.93,1.94,6,2.47,10.39,1.69,3.32-.59,11.75-2.4,15.66-7.32,4.59-5.79,6.41-14,2.41-17.86C443.43,140.44,430.41,138.9,427.79,138.86Z" style="fill: rgb(255, 168, 167); transform-origin: 434.909px 155.097px;" id="elicig0miijt" class="animable"></path><path d="M420.6,169.3c.69.85,4.25,2.46,7.48,2.16l-.46-1.73A23.56,23.56,0,0,1,420.6,169.3Z" style="fill: rgb(242, 143, 143); transform-origin: 424.34px 170.398px;" id="el56rvre8nimj" class="animable"></path><path d="M428.66,156.81a.86.86,0,0,0,1.56.11,11.42,11.42,0,0,1,1.49-2.1,4.19,4.19,0,0,1,2.75-1.22c3.88-.07,3.42,5.1,1.69,7-2.83,3.18-4.71.84-4.71.84s-1.76,5.12,1.74,7.69c0,0,6,1,10.25-.81,2.95-3.85,4.79-5.36,6.72-8.61,4.56-7.71,4.4-16.83.86-18.56-.05-2.58-1.8-6.3-7.27-8-5.21-1.65-8.55-1.13-12.15-.59s-7.91,2.61-11.54.11a7,7,0,0,0,1.14,6.23,2.29,2.29,0,0,0-1.58,4.29,1.79,1.79,0,0,0-.62,2.2,2.16,2.16,0,0,0,2,1.21,8.74,8.74,0,0,0,2.27-.36c1.33,2.87,4.77,3.59,6.74,3.28C428,152.44,428,155.47,428.66,156.81Z" style="fill: rgb(38, 50, 56); transform-origin: 435.931px 150.72px;" id="elwpxropry0na" class="animable"></path><path d="M424.55,180.24c3.42-3.08,2.56-4.28,3.5-6.1,2.76-2.27,15.48-5,16.45-4.06a51.09,51.09,0,0,0,4,3.62s-.57,1.86-7.86,3.62C433.7,179,431,178.77,424.55,180.24Z" style="fill: rgb(55, 71, 79); transform-origin: 436.525px 175.065px;" id="elchio6uiw01u" class="animable"></path><path d="M446.33,172.29c-4,.67-11.25,2.62-15.06,3.66s-9,4.49-9,4.49-7.32,3.18-8.22,4.19S410,192,409.23,202s.07,58.52.07,58.52,12.05,8,33.64,4.17c11.59-2.05,20.37-11.73,20.37-11.73s-.76-30.7-.76-34.83c0-11.95.92-21.17.52-28s-4.73-16.32-8.93-16.94C449,172.48,446.33,172.29,446.33,172.29Z" style="fill: rgb(69, 90, 100); transform-origin: 436.108px 219.009px;" id="elka1eqshzb3" class="animable"></path><g id="freepik--arm--inject-128" class="animable" style="transform-origin: 410.76px 231.121px;"><path d="M415.74,252.42a24.57,24.57,0,0,0,.05,4.2,10.5,10.5,0,0,1-1,4c-.57,1.12-1.45,2-2,3.16-1.18,2.37-1.25,5.17-1.45,7.85a3.88,3.88,0,0,1-.9,2.63,1,1,0,0,1-1,.33,1.29,1.29,0,0,1-.56-.77,6.89,6.89,0,0,1-.16,1.5,2.32,2.32,0,0,1-.51,1.15.93.93,0,0,1-1.12.23,1.61,1.61,0,0,1-.57-1,3.79,3.79,0,0,1-.94,2.88,1.14,1.14,0,0,1-1,.28c-.54-.12-.58-.61-.67-1.08-.14-.65-.32-1.3-.47-2a26.48,26.48,0,0,1-.6-3.86c0-.66-.11-1.41-.12-2.08,0-1.74,0-3,0-3s-.44,2.25-.58,4a30.81,30.81,0,0,1-.38,4.3c-.13.6-1,2-1.63,1.06a1.14,1.14,0,0,1-.12-.41l-.57-3.31a16.25,16.25,0,0,1-.28-2.18,16.47,16.47,0,0,1,.13-2.33c.13-1.2.25-2.39.4-3.59a13.85,13.85,0,0,1,.8-3.63c.68-1.65,1.64-3.2,2.43-4.79a18,18,0,0,0,2.24-5.38c1.17-4.34,1-6.37,1.37-11.16.35-4.42.8-12.19,1.11-15.65,0,0,.08-13.11-.15-18.81-.27-6.91-1.54-15.76,7.16-19.84a4,4,0,0,1,2.58,1.57c2,2.52,3.09,8.51,3.4,12.9.75,10.42.51,18.57.46,24.34a89.23,89.23,0,0,1-1.31,12C418.34,241.5,416,250.61,415.74,252.42Z" style="fill: rgb(255, 168, 167); transform-origin: 410.162px 232.001px;" id="eld0oj00zf9i7" class="animable"></path><path d="M402.7,266.86l-.17-4a50.72,50.72,0,0,0-.55,5.57,16.29,16.29,0,0,0,.15,2.33C402.28,269,402.7,266.86,402.7,266.86Z" style="fill: rgb(242, 143, 143); transform-origin: 402.34px 266.81px;" id="elx3ruvpf85u" class="animable"></path><path d="M405.5,263.94c-.09-.16-.2,0-.16.13.65,1.82.3,3.85.36,5.73a27,27,0,0,0,.14,3,16.34,16.34,0,0,0,.58,2.93c.05.15.07-.18.05-.34-.14-1.29-.26-1.84-.3-2.78s-.1-2.12-.09-3.18C406.09,267.63,406.48,265.56,405.5,263.94Z" style="fill: rgb(242, 143, 143); transform-origin: 405.905px 269.821px;" id="el72havwaaqwr" class="animable"></path><path d="M408.39,263.64c-.07-.17-.2,0-.16.14a11.12,11.12,0,0,1,.14,3.66,22.26,22.26,0,0,0,0,3.16,18.14,18.14,0,0,0,.47,3.1c0,.16.07-.18.06-.35-.08-1.37-.19-2-.19-2.93s0-2.23,0-3.34A7.61,7.61,0,0,0,408.39,263.64Z" style="fill: rgb(242, 143, 143); transform-origin: 408.562px 268.655px;" id="elcqkdsvlb93d" class="animable"></path><path d="M416.06,183.36c-5.83,2.46-9.47,4.42-10.3,12.25s.15,28.85.15,28.85L404,249.69s.76,2.49,5.22,3.57a10.35,10.35,0,0,0,7.69-1s3.89-16.93,4.74-22.19.77-10.27.61-19.12-.19-15.74-1.44-20.34S417.78,184.08,416.06,183.36Z" style="fill: rgb(55, 71, 79); transform-origin: 413.181px 218.477px;" id="el1wlzdalkkro" class="animable"></path><path d="M411,248.42a12.8,12.8,0,0,1-4.08-1.34,7,7,0,0,1-2.52-2.26l-.11,1.37a8.27,8.27,0,0,0,1.57,1.35,13.29,13.29,0,0,0,11.92,1.09c.09-.42.19-.86.29-1.33A10.69,10.69,0,0,1,411,248.42Z" style="fill: rgb(0, 255, 136); transform-origin: 411.18px 247.189px;" id="elvrqldm9ubv" class="animable"></path><path d="M411,248.42a12.8,12.8,0,0,1-4.08-1.34,7,7,0,0,1-2.52-2.26l-.11,1.37a8.27,8.27,0,0,0,1.57,1.35,13.29,13.29,0,0,0,11.92,1.09c.09-.42.19-.86.29-1.33A10.69,10.69,0,0,1,411,248.42Z" style="fill: rgb(0, 255, 136); transform-origin: 411.18px 247.189px;" id="elgba8rpbncic" class="animable"></path></g><path d="M405.44,202.68c8.53-.56,16.93,2.64,26.06,11,6.65,6.09,13.33,18.2,16.05,16.38,4.93-3.31,9.47-21.55,12.42-26.95a41.17,41.17,0,0,1,9.24-10.92,60.2,60.2,0,0,0-3-11.34c-2-4.88-4.43-7.95-10.79-8.67s-7.9-.45-16.37,1.42-10.39,3.08-15.73,5c-4,1.44-13.47,5.17-16.05,9.19S405.44,202.68,405.44,202.68Z" style="fill: rgb(0, 255, 136); transform-origin: 437.274px 201.028px;" id="el7ygm2bg1ttu" class="animable"></path><g id="el6ts4ynxb622"><path d="M468.7,189.5c-.07-.35-.15-.71-.24-1.11-9.58,7.44-13.64,19.13-18.09,30-.66,1.61-1.34,3.21-2.09,4.79a5,5,0,0,1-.6,1.06c-.37.42-.7.37-1.11,0a11.84,11.84,0,0,1-1.72-1.95c-2-2.58-3.86-5.2-6.07-7.6a51.5,51.5,0,0,0-15.09-11.58,40.05,40.05,0,0,0-10.54-3.49,32.67,32.67,0,0,0-5.58-.55c-.74,0-1.49,0-2.23.07v.73l.76,0c.9,0,1.81,0,2.72.08a36.34,36.34,0,0,1,4.75.63,40.14,40.14,0,0,1,9.61,3.29,50.44,50.44,0,0,1,15.1,11.73c1.09,1.21,2.14,2.47,3.14,3.75s1.91,2.62,2.92,3.88c.76.93,2,2.66,3.41,2.15a2.23,2.23,0,0,0,1.15-1.15c.4-.77.75-1.58,1.1-2.37,2.87-6.45,5.14-12.48,8.24-18.84A39.56,39.56,0,0,1,468.7,189.5Z" style="fill: rgb(255, 255, 255); opacity: 0.3; transform-origin: 437.02px 206.931px;" class="animable"></path></g></g></g></g><g id="freepik--character-1--inject-128" class="animable" style="transform-origin: 348.581px 310.935px;"><g id="freepik--character--inject-128" class="animable" style="transform-origin: 348.581px 310.935px;"><g id="freepik--bottom--inject-128" class="animable" style="transform-origin: 349.859px 354.728px;"><path d="M303.89,418.28c-.6-.12-.73,1.71-.61,2.51s2.34,3.71,6.69,5.13,10.59,1.26,13.24,1.44,6.53,1.9,9.08,2.73c5.9,1.92,9.53.11,11.26-1.2a2.81,2.81,0,0,0,.88-2.11c.14-1.75,0-2.12-.18-2.13Z" style="fill: rgb(55, 71, 79); transform-origin: 323.863px 424.6px;" id="eli5ws5adccbe" class="animable"></path><path d="M344.06,419a33.21,33.21,0,0,1,.56,3.73c.14,1.5.22,3.43-.91,4.49a8.36,8.36,0,0,1-6.25,2.1,18.68,18.68,0,0,1-7.63-1.69c-2.22-1-4-1.86-6.49-2-2.74-.15-6.54-.08-9.23-.66a22.2,22.2,0,0,1-6.58-2.2,8.55,8.55,0,0,1-3.67-4.13,6.21,6.21,0,0,1,4.16-5.73,13.94,13.94,0,0,1,7-.64c2.57.32,4.47.89,6.77,1a11.32,11.32,0,0,0,4.66-.56,4.53,4.53,0,0,0,1.67-1.87c.46-.76.67-1.47,1.41-1.46,0,0,12,1.34,13.12,1.52s.89,1.88.84,2.79,0,.8-.05,1.58a10.54,10.54,0,0,0,.37,2.61C343.9,418.21,344,418.59,344.06,419Z" style="fill: rgb(69, 90, 100); transform-origin: 324.279px 419.364px;" id="el469ms937sx5" class="animable"></path><path d="M319.85,412.55a1.54,1.54,0,0,0-.53-.26c-1-.28-1.94.65-2.48,1.4a6.72,6.72,0,0,0-.73,1.5,3.63,3.63,0,0,0-.27,2c0,.18.14.39.31.36s.23-.21.26-.37a7.83,7.83,0,0,1,1.11-2.65,2.8,2.8,0,0,1,1.87-1.46c.16,0,.86,0,.73-.28a.47.47,0,0,0-.13-.15Z" style="fill: rgb(250, 250, 250); transform-origin: 317.968px 414.896px;" id="elgbfig25l4aq" class="animable"></path><path d="M322.87,412.91a2,2,0,0,0-1.43.22,2.92,2.92,0,0,0-1,1.29,4.35,4.35,0,0,0-.48,3.49c.16.35.45.21.6-.06a5.55,5.55,0,0,0,.25-1.07,9.56,9.56,0,0,1,.91-2.25,3.52,3.52,0,0,1,.53-.79,1.58,1.58,0,0,1,.51-.38,1.14,1.14,0,0,1,.3-.09h.29c0-.15-.14-.25-.28-.3A.79.79,0,0,0,322.87,412.91Z" style="fill: rgb(250, 250, 250); transform-origin: 321.57px 415.491px;" id="el506mmz51889" class="animable"></path><path d="M326,412.39a2,2,0,0,0-.95.5,2.45,2.45,0,0,0-.52.88,9.34,9.34,0,0,0-.68,2.24,2.89,2.89,0,0,0,.2,1.62c.1.19.29.4.5.33s.24-.42.28-.61c.08-.37.09-.75.14-1.11a6.5,6.5,0,0,1,1.68-3.62c0-.05.09-.11.08-.17s-.15-.13-.25-.12Z" style="fill: rgb(250, 250, 250); transform-origin: 325.271px 415.151px;" id="el9f5p69jtzd" class="animable"></path><path d="M316.61,412.48c-1.05-.14-3.46,1.06-4.91,4.19a18.68,18.68,0,0,0-1.31,7.32,10.55,10.55,0,0,1-5.59-3.46,6.26,6.26,0,0,1-1.27-2,6.53,6.53,0,0,1,1.67-4.85c1.76-1.67,4.27-2.61,8.06-2.39,4.24.25,4.48,1.42,4.48,1.42Z" style="fill: rgb(250, 250, 250); transform-origin: 310.627px 417.624px;" id="eldym0vt4xcpj" class="animable"></path><path d="M394.35,396.48a12.35,12.35,0,0,1-.22,4.53c-.2,1.5-.42,3-.53,4.48a16.46,16.46,0,0,1-.38,2.73,17.3,17.3,0,0,0-.13,3.3c0,1.15,0,2.3-.07,3.45a6.65,6.65,0,0,0,0,1.48c.12.48-7.3,4.73-10.3,6.37a5.44,5.44,0,0,1-.54.26,4.73,4.73,0,0,1-4.86-1.14,8.26,8.26,0,0,1,2-9.09s.38,0,.3-2.91c0-2.08,0-4.2-.22-6.27-.13-1.32-.67-1.74-1.16-2.95S377,398.44,377,397.2a9.08,9.08,0,0,1,1.34-3.32c1.09-1.87,3.49-3.41,5.42-4.28,1.1-.49,2.9-1,4-.35.61.37.9,1.09,1.33,1.65a8.21,8.21,0,0,0,1.95,1.61,7.52,7.52,0,0,1,3.17,3.62C394.28,396.25,394.32,396.36,394.35,396.48Z" style="fill: rgb(69, 90, 100); transform-origin: 385.595px 406.136px;" id="elt4a33568xy" class="animable"></path><path d="M379.35,412.85a10.35,10.35,0,0,0-1,1.4h0a10.45,10.45,0,0,0-1,7.69c-5.24-.48-6.62-3.5-6.62-3.5s-.29-2.62,2.73-4.52a7.74,7.74,0,0,1,1.14-.59.1.1,0,0,0,.05,0A7.69,7.69,0,0,1,379.35,412.85Z" style="fill: rgb(250, 250, 250); transform-origin: 375.036px 417.31px;" id="el6bekpda4hu" class="animable"></path><path d="M395.57,397.3c1.37.54,1,4.32.15,8s-1.35,4.92-.9,7.94.69,4.39-.54,5.5-11.06,5.7-11.06,5.7A36.23,36.23,0,0,0,385.41,413c.26-6.71.71-11,3.82-14.09A5.91,5.91,0,0,1,395.57,397.3Z" style="fill: rgb(38, 50, 56); transform-origin: 389.85px 410.703px;" id="elzcqz8e5mxq" class="animable"></path><path d="M370.71,418.43a18.24,18.24,0,0,0,8.2,3.58c4.39.5,4.61-1.18,5.07-6.38s.64-12.38,2.68-15.55,5.49-4.56,6.85-4.24c.27-.15,1.62.86,2.06,1.46a7.52,7.52,0,0,0-5.75,2.31c-2.73,2.67-3.23,8.33-3.36,13.46s-.35,11.09-4.44,11.72a14.92,14.92,0,0,1-11.16-3.39A2.08,2.08,0,0,1,370.71,418.43Z" style="fill: rgb(55, 71, 79); transform-origin: 382.864px 410.335px;" id="elz88iupbs28" class="animable"></path><path d="M379.66,410.94a1.45,1.45,0,0,0-.61.95,3,3,0,0,0,1.49,2.7c.55.31,1,.19.14-.89A5.7,5.7,0,0,1,379.66,410.94Z" style="fill: rgb(250, 250, 250); transform-origin: 380.104px 412.839px;" id="elrxa9eqrna1" class="animable"></path><path d="M379.57,407.32a1.31,1.31,0,0,0-.37.79,4.51,4.51,0,0,0,1.81,2.83c1,.43.44-.63,0-1.13A18.6,18.6,0,0,1,379.57,407.32Z" style="fill: rgb(250, 250, 250); transform-origin: 380.385px 409.18px;" id="elpt0jvks7h" class="animable"></path><path d="M379.33,403.34a.88.88,0,0,0-.45.64c0,.42,1.95,1.9,2.57,1.86s.77-.25,0-.77S379.33,403.34,379.33,403.34Z" style="fill: rgb(250, 250, 250); transform-origin: 380.426px 404.59px;" id="elnfljohtrdf" class="animable"></path><path d="M377.66,399.45s-7.57-10.45-17.6-29.14c-2.75-5.12-5.11-10.37-5.85-14.14s-3.07-11.85-3.07-11.85l-2.51,18.6c.78,4.94.56,13.26-1.2,23.3-2,11.46-3.47,28.88-3.47,28.88-1,.78-5.31,1.47-8,1.25-6.67-.55-8.87-4.16-8.87-4.16s-1.84-22.7-2.36-34.11c-.94-20.31-1.42-24.7-2.42-48-.84-19.74,1-32,6.58-49.65,14.44,6.55,34.06,5.32,42.15-1.9,0,0,8,14.37,7.73,28.33-.27,14.61-1.17,42.92-1.17,42.92a67.68,67.68,0,0,1,5.22,15.45c1.64,7.39,4.31,16.56,6.12,25.47C380.71,390.45,377.66,399.45,377.66,399.45Z" style="fill: rgb(55, 71, 79); transform-origin: 355.528px 347.461px;" id="ellb5h9uasn4n" class="animable"></path><path d="M389,390.65a10.66,10.66,0,0,0-8.64,4.2,15.18,15.18,0,0,0-.92,1.24,15.86,15.86,0,0,0-1.75,3.37s-7.58-10.46-17.6-29.15c-2.74-5.12-5.11-10.37-5.85-14.13s-3.07-11.86-3.07-11.86l-2.51,18.6c.78,4.94.56,13.26-1.2,23.29-2,11.47-3.47,28.89-3.47,28.89-1,.78-5.31,1.47-8,1.26-6.67-.55-8.86-4.17-8.86-4.17s-1.83-22.7-2.36-34.1c-.95-20.31-1.42-24.71-2.42-48-.84-19.74,1-32,6.58-49.65,14.44,6.55,34.06,5.32,42.16-1.9,0,0,8,14.37,7.72,28.32-.27,14.61-1.17,42.93-1.17,42.93a67.06,67.06,0,0,1,5.21,15.45C384.49,372.59,387.16,381.76,389,390.65Z" style="fill: rgb(55, 71, 79); transform-origin: 355.578px 347.469px;" id="elceyyfkkvb1f" class="animable"></path><path d="M380.33,394.85a15.18,15.18,0,0,0-.92,1.24c-2.18-3.82-5.72-10-6.32-11.13-1.18-2.17-2.37-4.36-3.54-6.54-4.16-7.71-8.3-15.49-11.25-23.75a68.63,68.63,0,0,1-3.26-12.5,57.22,57.22,0,0,1-.67-6.51,19.87,19.87,0,0,1,.33-6.53c.15-.51.58.06.61.31.25,1.89.13,3.83.25,5.72.08,1.21.2,2.41.35,3.62a67.56,67.56,0,0,0,1.27,6.73A110.14,110.14,0,0,0,366.23,369c1.88,3.72,3.86,7.39,5.84,11.06q1.59,2.94,3.15,5.9C375.52,386.53,378.39,391.49,380.33,394.85Z" style="fill: rgb(38, 50, 56); transform-origin: 367.285px 362.507px;" id="el2w83biayufg" class="animable"></path><path d="M331.68,303.68a89.89,89.89,0,0,1,4.64-20.7l-1.13-.31a78.73,78.73,0,0,0-5.14,20.92c-3.55-.82-4.22-5.86-4.1-8.88a40.24,40.24,0,0,1,.66-5.36c.21-1.22.53-2.49.74-3.75-1,3.54-1.88,6.91-2.59,10.21,0,.14,0,.27,0,.41.18,3.25,1.61,7.76,5.16,8.58-.74,6.82-.94,13.73-1.08,20.53Q328.27,352.68,330,380c.53,8.36,1,27.32,2.13,35.65a15.22,15.22,0,0,0,1.58.39c-.54-7.28-1.34-25.05-1.84-32.33q-.92-13.49-1.28-27-.37-14.06-.16-28.11C330.56,320.29,330.74,312,331.68,303.68Z" style="fill: rgb(38, 50, 56); transform-origin: 330.54px 349.355px;" id="elbtyy9u4wb7" class="animable"></path><path d="M351.14,344.32l4-31.12s5.17.35,13.16-6.65c0,0-1.28,5.94-9.85,10l-4.81,26.73.61,12.88Z" style="fill: rgb(38, 50, 56); transform-origin: 359.72px 331.355px;" id="elvhughz9j4ri" class="animable"></path></g><g id="freepik--top--inject-128" class="animable" style="transform-origin: 340.618px 271.239px;"><g id="freepik--arm--inject-128" class="animable" style="transform-origin: 373.412px 263.92px;"><path d="M366.27,230.55c7.74.89,9.4,6.1,10.81,14.2s3.34,20.7,3.47,26.61-3.36,25.93-3.36,25.93L368,272.75Z" style="fill: rgb(0, 255, 136); transform-origin: 373.412px 263.92px;" id="elnc95nqzx4gs" class="animable"></path><g id="elfmgdrtuyw8m"><path d="M366.27,230.55c7.74.89,9.4,6.1,10.81,14.2s3.34,20.7,3.47,26.61-3.36,25.93-3.36,25.93L368,272.75Z" style="fill: rgb(255, 255, 255); opacity: 0.4; transform-origin: 373.412px 263.92px;" class="animable"></path></g></g><path d="M335.31,204.33s-4.85,4.93-4.53,5.5a7.72,7.72,0,0,0,2.21,1.44Z" style="fill: rgb(240, 153, 122); transform-origin: 333.037px 207.8px;" id="elhq11yt1tgvi" class="animable"></path><path d="M346.61,192.18c-2.83.85-7.58,1.41-10.94,8.51-.58,1.23-.43,3.3-.92,4.88-.55,1.78-1.69,3.66-2,5.11-1.57,7.55.1,10.87,1.19,12.35.88,1.19,6.27,2.53,9.27,2.17,3.75-.45,12.14-2.81,16.8-8,5.48-6.1,8-15.08,3.74-19.54C357.75,191.4,349.42,191.34,346.61,192.18Z" style="fill: rgb(255, 189, 167); transform-origin: 349.002px 208.53px;" id="elgl064ydg0z" class="animable"></path><path d="M334.21,223.28c1.15.94,4.72,1.88,7.5,2l1-2.12a31.64,31.64,0,0,1-4.55.6A12.89,12.89,0,0,1,334.21,223.28Z" style="fill: rgb(240, 153, 122); transform-origin: 338.46px 224.22px;" id="elyomy603r3d" class="animable"></path><path d="M380.11,307.86c-.38-14.26-2.62-20.5-7.19-33a70.48,70.48,0,0,1-1.29-11.41c1.06-8.89,4.33-13.31.93-26.21-1.17-4.42-2.61-7.32-11-6.94l-1.17,0c-3,.43-6.66.78-14.86,1.27a46.43,46.43,0,0,0-13.1,2.26s-2.76,1-5.57,16.54c-.75,4.15-3.39,25.42-3.39,25.42L321,313.66c0,14,.61,31.79.61,31.79s10.9,7.94,32.69,5.68,25.85-12.38,25.85-12.38S380.49,322.12,380.11,307.86Z" style="fill: rgb(0, 255, 136); transform-origin: 350.645px 290.901px;" id="elcg0tnq3tnbo" class="animable"></path><g id="freepik--arm--inject-128" class="animable" style="transform-origin: 319.356px 279.704px;"><path d="M321.82,300.89a25.87,25.87,0,0,0-.82,4.36,11,11,0,0,1-1.84,3.9c-.83,1-1.92,1.8-2.73,2.85-1.72,2.21-2.37,5.1-3.14,7.83a4.07,4.07,0,0,1-1.47,2.54,1.07,1.07,0,0,1-1.14.13,1.41,1.41,0,0,1-.42-.92,7.43,7.43,0,0,1-.47,1.52,2.52,2.52,0,0,1-.77,1.09,1,1,0,0,1-1.21,0,1.66,1.66,0,0,1-.37-1.18c-.27,1.08-.62,2.29-1.58,2.8a1.22,1.22,0,0,1-1.05.09c-.54-.24-.47-.76-.47-1.26,0-.71-.07-1.42-.08-2.13a28.35,28.35,0,0,1,.18-4.12c.09-.69.18-1.49.31-2.18.33-1.81.57-3.07.57-3.07s-.92,2.24-1.43,4a34.73,34.73,0,0,1-1.28,4.37c-.26.6-1.5,1.88-1.91.76a1.38,1.38,0,0,1,0-.45l.09-3.55a19.78,19.78,0,0,1,.17-2.31,17.85,17.85,0,0,1,.62-2.39c.38-1.21.76-2.42,1.16-3.63a14.79,14.79,0,0,1,1.58-3.59c1.05-1.57,2.36-3,3.51-4.46a19.19,19.19,0,0,0,3.44-5.1c2.1-4.25,2.34-6.39,3.72-11.27,1.28-4.51,2.27-8.93,3.31-12.46,0,0,1.83-14.21,2.78-20.16,1.15-7.21,1.67-16.63,11.53-19.06a4.27,4.27,0,0,1,2.35,2.17c1.58,3,2.06,8.54,1.48,13.16-1.39,10.94-3,22-4.23,27.91a38.5,38.5,0,0,1-2.78,7.61C326.78,290.13,322.47,299.07,321.82,300.89Z" style="fill: rgb(255, 189, 167); transform-origin: 318.679px 279.909px;" id="elprx7l9ietms" class="animable"></path><path d="M305.32,313.14l.67-4.22a54,54,0,0,0-1.74,5.65,17.26,17.26,0,0,0-.32,2.44C304.44,315.27,305.32,313.14,305.32,313.14Z" style="fill: rgb(240, 153, 122); transform-origin: 304.96px 312.965px;" id="el59lwppo1d1u" class="animable"></path><path d="M308.82,310.69c-.06-.18-.2,0-.18.11.29,2-.5,4-.82,6a27.14,27.14,0,0,0-.48,3.14,17.44,17.44,0,0,0,0,3.15c0,.17.11-.17.13-.34.12-1.37.1-2,.26-2.94s.33-2.21.56-3.31C308.67,314.64,309.51,312.58,308.82,310.69Z" style="fill: rgb(240, 153, 122); transform-origin: 308.176px 316.875px;" id="el1eh9pjaqr0k" class="animable"></path><path d="M311.87,311c0-.2-.2,0-.19.1a11.72,11.72,0,0,1-.61,3.82,23.7,23.7,0,0,0-.64,3.27,19.28,19.28,0,0,0-.17,3.31c0,.18.12-.17.15-.34.19-1.44.2-2.06.41-3.08s.45-2.31.73-3.45A7.92,7.92,0,0,0,311.87,311Z" style="fill: rgb(240, 153, 122); transform-origin: 311.1px 316.232px;" id="elugfxowxfcid" class="animable"></path><path d="M334,233.43c-6.47,1-10,3.28-11.81,11s-4.21,26.77-4.21,26.77l-7.57,24.75s-.1,3.76,5.95,6.52a12.61,12.61,0,0,0,11.28-.51s4.57-16.23,6.06-21.34,2-10.11,3-18.91,1.75-15.64,1.07-20.36S335.58,234.36,334,233.43Z" style="fill: rgb(0, 255, 136); transform-origin: 324.221px 268.495px;" id="ellbn9y251z1" class="animable"></path><g id="elvpkc13dr7t"><path d="M334,233.43c-6.47,1-10,3.28-11.81,11s-4.21,26.77-4.21,26.77l-7.57,24.75s-.1,3.76,5.95,6.52a12.61,12.61,0,0,0,11.28-.51s4.57-16.23,6.06-21.34,2-10.11,3-18.91,1.75-15.64,1.07-20.36S335.58,234.36,334,233.43Z" style="fill: rgb(255, 255, 255); opacity: 0.4; transform-origin: 324.221px 268.495px;" class="animable"></path></g></g><g id="freepik--Veil--inject-128" class="animable" style="transform-origin: 350.974px 223.17px;"><path d="M343.63,209.12a25.47,25.47,0,0,1-5.76-12.91s3.68-4,6.87-3.12Z" style="fill: rgb(38, 50, 56); transform-origin: 341.305px 201.042px;" id="elkks0o0h0lj" class="animable"></path><path d="M341.62,230.79a46.39,46.39,0,0,0-4.7,1.19,3.52,3.52,0,0,1,.22-3c.74-1.33-1.71-2.56.08-4.4,3-.62,3.54-1.08,3.54-1.08Z" style="fill: rgb(224, 224, 224); transform-origin: 339.085px 227.74px;" id="eln1nfvyjkzlg" class="animable"></path><path d="M367,202.49c-1.53-5.44-5.51-10.68-13.36-11.42s-11.93,2-11.93,2c-1.95,4.93-2.8,12.52-1.65,23.49.07.74.15,1.52.24,2.33.92,12.07-7.17,13.8-10,15.42a12.36,12.36,0,0,1,7.63,1.1c3.16,1.57,4.19,2.4,7.52,10.18,2.9,6.8,9.68,12.92,18.84,8.06s7.45-13.47,6.79-22.67S368.52,207.92,367,202.49Z" style="fill: rgb(245, 245, 245); transform-origin: 350.974px 223.17px;" id="elv81gmnnkdtd" class="animable"></path><path d="M368.18,234.29c-.05-.18-.24-.12-.2.06a13.16,13.16,0,0,1,.09,4.06,23.83,23.83,0,0,1-.49,3.14,12.6,12.6,0,0,1-2.6,5.63,9.57,9.57,0,0,1-10.32,2.71,10.9,10.9,0,0,1-5.09-4.08c-.11-.15-.2.06-.14.17a9.8,9.8,0,0,0,10.06,5.28,10.64,10.64,0,0,0,5.42-2.54,10.09,10.09,0,0,0,3.19-5.85,30.81,30.81,0,0,0,.41-4.08A14.5,14.5,0,0,0,368.18,234.29Z" style="fill: rgb(224, 224, 224); transform-origin: 358.985px 242.765px;" id="elzks7238s5lk" class="animable"></path><path d="M363.33,245.65a9.56,9.56,0,0,1-9.6-.23c-3.31-2-5.28-5.32-6.51-8.87-.06-.19-.26-.13-.2.07,1.05,3.57,3,7.35,6.16,9.43s7.41,2.37,10.26-.15C363.53,245.83,363.45,245.58,363.33,245.65Z" style="fill: rgb(224, 224, 224); transform-origin: 355.244px 242.068px;" id="el9wuohzhald9" class="animable"></path></g></g></g></g><defs>     <filter id="active" height="200%">         <feMorphology in="SourceAlpha" result="DILATED" operator="dilate" radius="2"></feMorphology>                <feFlood flood-color="#32DFEC" flood-opacity="1" result="PINK"></feFlood>        <feComposite in="PINK" in2="DILATED" operator="in" result="OUTLINE"></feComposite>        <feMerge>            <feMergeNode in="OUTLINE"></feMergeNode>            <feMergeNode in="SourceGraphic"></feMergeNode>        </feMerge>    </filter>    <filter id="hover" height="200%">        <feMorphology in="SourceAlpha" result="DILATED" operator="dilate" radius="2"></feMorphology>                <feFlood flood-color="#ff0000" flood-opacity="0.5" result="PINK"></feFlood>        <feComposite in="PINK" in2="DILATED" operator="in" result="OUTLINE"></feComposite>        <feMerge>            <feMergeNode in="OUTLINE"></feMergeNode>            <feMergeNode in="SourceGraphic"></feMergeNode>        </feMerge>            <feColorMatrix type="matrix" values="0   0   0   0   0                0   1   0   0   0                0   0   0   0   0                0   0   0   1   0 "></feColorMatrix>    </filter></defs></svg>